<mxfile host="65bd71144e">
    <diagram name="基本アーキテクチャ図(2)" id="kNQ7hPWD0Lw1mM555jFB">
        <mxGraphModel dx="1355" dy="1326" grid="1" gridSize="10" guides="1" tooltips="1" connect="1" arrows="1" fold="1" page="0" pageScale="1" pageWidth="827" pageHeight="1169" math="0" shadow="0">
            <root>
                <mxCell id="fxQP5-2Rpk5uUzQ9qzvW-0"/>
                <mxCell id="0" value="枠組み" style="" parent="fxQP5-2Rpk5uUzQ9qzvW-0"/>
                <mxCell id="2908" value="" style="group" parent="0" vertex="1" connectable="0">
                    <mxGeometry x="-238" y="840" width="1086" height="600" as="geometry"/>
                </mxCell>
                <mxCell id="2909" value="" style="rounded=0;whiteSpace=wrap;html=1;labelBackgroundColor=none;fontSize=11;fillColor=none;dashed=1;container=0;strokeColor=#FF99CC;" parent="2908" vertex="1">
                    <mxGeometry y="2.7692307692307696" width="1086" height="597.2307692307693" as="geometry"/>
                </mxCell>
                <mxCell id="2910" value="&lt;font style=&quot;font-size: 11px;&quot;&gt;a)-2&amp;nbsp;：ロードマップコピー&lt;/font&gt;" style="text;strokeColor=none;align=left;fillColor=none;html=1;verticalAlign=middle;whiteSpace=wrap;rounded=0;labelBackgroundColor=none;fontSize=10;" parent="2908" vertex="1">
                    <mxGeometry width="276" height="18.461538461538463" as="geometry"/>
                </mxCell>
                <mxCell id="2062" value="" style="group" parent="0" vertex="1" connectable="0">
                    <mxGeometry x="-236" y="80" width="1086" height="740" as="geometry"/>
                </mxCell>
                <mxCell id="2063" value="" style="rounded=0;whiteSpace=wrap;html=1;labelBackgroundColor=none;fontSize=11;fillColor=none;dashed=1;container=0;strokeColor=#FF99CC;" parent="2062" vertex="1">
                    <mxGeometry y="3.4153846153846157" width="1086" height="736.5846153846154" as="geometry"/>
                </mxCell>
                <mxCell id="2064" value="&lt;font style=&quot;font-size: 11px;&quot;&gt;a)-1 ：ロードマップ削除&lt;/font&gt;" style="text;strokeColor=none;align=left;fillColor=none;html=1;verticalAlign=middle;whiteSpace=wrap;rounded=0;labelBackgroundColor=none;fontSize=10;" parent="2062" vertex="1">
                    <mxGeometry width="276" height="22.76923076923077" as="geometry"/>
                </mxCell>
                <mxCell id="2109" value="" style="text;strokeColor=default;align=center;fillColor=none;html=1;verticalAlign=middle;whiteSpace=wrap;rounded=0;labelBackgroundColor=none;fontSize=10;dashed=1;strokeWidth=2;perimeterSpacing=0;dashPattern=1 1;glass=1;container=0;" parent="2062" vertex="1">
                    <mxGeometry x="490" y="47.88" width="590" height="682.12" as="geometry"/>
                </mxCell>
                <mxCell id="2110" value="トランザクション" style="text;strokeColor=none;align=center;fillColor=none;html=1;verticalAlign=middle;whiteSpace=wrap;rounded=0;labelBackgroundColor=none;fontSize=10;" parent="2062" vertex="1">
                    <mxGeometry x="488" y="50" width="90" height="15" as="geometry"/>
                </mxCell>
                <mxCell id="2066" value="" style="group" parent="0" vertex="1" connectable="0">
                    <mxGeometry x="480" y="141" width="280" height="650" as="geometry"/>
                </mxCell>
                <mxCell id="2067" value="&lt;div style=&quot;&quot;&gt;&lt;br&gt;&lt;/div&gt;" style="rounded=0;whiteSpace=wrap;html=1;labelBackgroundColor=none;strokeColor=#009900;fontSize=11;fontColor=#FFFFFF;fillColor=none;dashed=1;strokeWidth=3;align=right;labelPosition=left;verticalLabelPosition=top;verticalAlign=bottom;" parent="2066" vertex="1">
                    <mxGeometry x="1.08" y="1" width="238.92" height="649" as="geometry"/>
                </mxCell>
                <mxCell id="2068" value="M" style="text;strokeColor=#005700;align=center;fillColor=#008a00;html=1;verticalAlign=middle;whiteSpace=wrap;rounded=0;labelBackgroundColor=none;fontSize=20;fontColor=#ffffff;" parent="2066" vertex="1">
                    <mxGeometry width="21.576763485477176" height="20" as="geometry"/>
                </mxCell>
                <mxCell id="2069" value="" style="group" parent="0" vertex="1" connectable="0">
                    <mxGeometry x="-50" y="580" width="270" height="171" as="geometry"/>
                </mxCell>
                <mxCell id="2070" value="&lt;div style=&quot;&quot;&gt;&lt;br&gt;&lt;/div&gt;" style="rounded=0;whiteSpace=wrap;html=1;labelBackgroundColor=none;strokeColor=#009900;fontSize=11;fontColor=#FFFFFF;fillColor=none;dashed=1;strokeWidth=3;align=right;labelPosition=left;verticalLabelPosition=top;verticalAlign=bottom;" parent="2069" vertex="1">
                    <mxGeometry x="1" y="1" width="269" height="79" as="geometry"/>
                </mxCell>
                <mxCell id="2071" value="V" style="text;strokeColor=#005700;align=center;fillColor=#008a00;html=1;verticalAlign=middle;whiteSpace=wrap;rounded=0;labelBackgroundColor=none;fontSize=20;fontColor=#ffffff;" parent="2069" vertex="1">
                    <mxGeometry width="20" height="20" as="geometry"/>
                </mxCell>
                <mxCell id="2072" value="" style="group" parent="0" vertex="1" connectable="0">
                    <mxGeometry x="-70" y="120" width="290" height="400" as="geometry"/>
                </mxCell>
                <mxCell id="2073" value="&lt;div style=&quot;&quot;&gt;&lt;br&gt;&lt;/div&gt;" style="rounded=0;whiteSpace=wrap;html=1;labelBackgroundColor=none;strokeColor=#009900;fontSize=11;fontColor=#FFFFFF;fillColor=none;dashed=1;strokeWidth=3;align=right;labelPosition=left;verticalLabelPosition=top;verticalAlign=bottom;" parent="2072" vertex="1">
                    <mxGeometry x="21" y="1" width="269" height="399" as="geometry"/>
                </mxCell>
                <mxCell id="2074" value="C" style="text;strokeColor=#005700;align=center;fillColor=#008a00;html=1;verticalAlign=middle;whiteSpace=wrap;rounded=0;labelBackgroundColor=none;fontSize=20;fontColor=#ffffff;" parent="2072" vertex="1">
                    <mxGeometry x="20" width="20" height="20" as="geometry"/>
                </mxCell>
                <mxCell id="2900" value="" style="text;strokeColor=default;align=center;fillColor=none;html=1;verticalAlign=middle;whiteSpace=wrap;rounded=0;labelBackgroundColor=none;fontSize=10;dashed=1;strokeWidth=2;perimeterSpacing=0;dashPattern=1 1;glass=1;container=0;" parent="0" vertex="1">
                    <mxGeometry x="252" y="887.88" width="590" height="522.12" as="geometry"/>
                </mxCell>
                <mxCell id="2901" value="トランザクション" style="text;strokeColor=none;align=center;fillColor=none;html=1;verticalAlign=middle;whiteSpace=wrap;rounded=0;labelBackgroundColor=none;fontSize=10;" parent="0" vertex="1">
                    <mxGeometry x="251" y="890" width="90" height="15" as="geometry"/>
                </mxCell>
                <mxCell id="2902" value="" style="group" parent="0" vertex="1" connectable="0">
                    <mxGeometry x="478" y="991" width="280" height="650" as="geometry"/>
                </mxCell>
                <mxCell id="2903" value="&lt;div style=&quot;&quot;&gt;&lt;br&gt;&lt;/div&gt;" style="rounded=0;whiteSpace=wrap;html=1;labelBackgroundColor=none;strokeColor=#009900;fontSize=11;fontColor=#FFFFFF;fillColor=none;dashed=1;strokeWidth=3;align=right;labelPosition=left;verticalLabelPosition=top;verticalAlign=bottom;" parent="2902" vertex="1">
                    <mxGeometry x="1.08" y="1" width="238.92" height="389" as="geometry"/>
                </mxCell>
                <mxCell id="2904" value="M" style="text;strokeColor=#005700;align=center;fillColor=#008a00;html=1;verticalAlign=middle;whiteSpace=wrap;rounded=0;labelBackgroundColor=none;fontSize=20;fontColor=#ffffff;" parent="2902" vertex="1">
                    <mxGeometry width="21.576763485477176" height="20" as="geometry"/>
                </mxCell>
                <mxCell id="2905" value="" style="group" parent="0" vertex="1" connectable="0">
                    <mxGeometry x="-72" y="880" width="290" height="400" as="geometry"/>
                </mxCell>
                <mxCell id="2906" value="&lt;div style=&quot;&quot;&gt;&lt;br&gt;&lt;/div&gt;" style="rounded=0;whiteSpace=wrap;html=1;labelBackgroundColor=none;strokeColor=#009900;fontSize=11;fontColor=#FFFFFF;fillColor=none;dashed=1;strokeWidth=3;align=right;labelPosition=left;verticalLabelPosition=top;verticalAlign=bottom;" parent="2905" vertex="1">
                    <mxGeometry x="21" y="1" width="269" height="399" as="geometry"/>
                </mxCell>
                <mxCell id="2907" value="C" style="text;strokeColor=#005700;align=center;fillColor=#008a00;html=1;verticalAlign=middle;whiteSpace=wrap;rounded=0;labelBackgroundColor=none;fontSize=20;fontColor=#ffffff;" parent="2905" vertex="1">
                    <mxGeometry x="20" width="20" height="20" as="geometry"/>
                </mxCell>
                <mxCell id="2911" value="&lt;div style=&quot;&quot;&gt;&lt;br&gt;&lt;/div&gt;" style="rounded=0;whiteSpace=wrap;html=1;labelBackgroundColor=none;strokeColor=#009900;fontSize=11;fontColor=#FFFFFF;fillColor=none;dashed=1;strokeWidth=3;align=right;labelPosition=left;verticalLabelPosition=top;verticalAlign=bottom;" parent="0" vertex="1">
                    <mxGeometry x="-51" y="1341" width="269" height="79" as="geometry"/>
                </mxCell>
                <mxCell id="2912" value="V" style="text;strokeColor=#005700;align=center;fillColor=#008a00;html=1;verticalAlign=middle;whiteSpace=wrap;rounded=0;labelBackgroundColor=none;fontSize=20;fontColor=#ffffff;" parent="0" vertex="1">
                    <mxGeometry x="-52" y="1340" width="20" height="20" as="geometry"/>
                </mxCell>
                <mxCell id="fxQP5-2Rpk5uUzQ9qzvW-1" style="" parent="fxQP5-2Rpk5uUzQ9qzvW-0"/>
                <mxCell id="2483" style="edgeStyle=none;rounded=0;html=1;exitX=0;exitY=0.75;exitDx=0;exitDy=0;entryX=0.25;entryY=1;entryDx=0;entryDy=0;jumpStyle=line;jumpSize=10;" parent="fxQP5-2Rpk5uUzQ9qzvW-1" target="2017" edge="1">
                    <mxGeometry relative="1" as="geometry">
                        <Array as="points">
                            <mxPoint x="307" y="430"/>
                        </Array>
                        <mxPoint x="572.0500000000002" y="428.75" as="sourcePoint"/>
                        <mxPoint x="363.94749999999976" y="305" as="targetPoint"/>
                    </mxGeometry>
                </mxCell>
                <mxCell id="n8tdfDY55hou1CKn_ImN-23" value="⑤ロードマップ管理機能&lt;br&gt;(全削除・全コピー)" style="rounded=1;whiteSpace=wrap;html=1;labelBackgroundColor=none;strokeColor=default;fontSize=11;fontColor=#FFFFFF;fillColor=#808080;" parent="fxQP5-2Rpk5uUzQ9qzvW-1" vertex="1">
                    <mxGeometry x="-260" y="20" width="160" height="40" as="geometry"/>
                </mxCell>
                <mxCell id="fxQP5-2Rpk5uUzQ9qzvW-98" value="" style="group" parent="fxQP5-2Rpk5uUzQ9qzvW-1" vertex="1" connectable="0">
                    <mxGeometry x="-260" y="-350" width="473.5" height="330" as="geometry"/>
                </mxCell>
                <mxCell id="fxQP5-2Rpk5uUzQ9qzvW-99" value="" style="rounded=1;whiteSpace=wrap;html=1;labelBackgroundColor=none;fillStyle=auto;strokeColor=#F0F0F0;fontFamily=Helvetica;fontSize=10;fontColor=#FFFFFF;fillColor=#808080;container=0;" parent="fxQP5-2Rpk5uUzQ9qzvW-98" vertex="1">
                    <mxGeometry width="460" height="330" as="geometry"/>
                </mxCell>
                <mxCell id="fxQP5-2Rpk5uUzQ9qzvW-100" value="" style="rounded=0;whiteSpace=wrap;html=1;labelBackgroundColor=none;strokeColor=#FF99CC;fontSize=11;fontColor=#FFFFFF;fillColor=none;dashed=1;container=0;" parent="fxQP5-2Rpk5uUzQ9qzvW-98" vertex="1">
                    <mxGeometry x="262" y="140" width="30" height="17" as="geometry"/>
                </mxCell>
                <mxCell id="fxQP5-2Rpk5uUzQ9qzvW-101" value="M or V or C" style="rounded=0;whiteSpace=wrap;html=1;labelBackgroundColor=none;strokeColor=#009900;fontSize=11;fontColor=#FFFFFF;fillColor=none;dashed=1;strokeWidth=2;container=0;" parent="fxQP5-2Rpk5uUzQ9qzvW-98" vertex="1">
                    <mxGeometry x="231" y="168" width="62.5" height="19" as="geometry"/>
                </mxCell>
                <mxCell id="fxQP5-2Rpk5uUzQ9qzvW-102" value="&lt;font color=&quot;#ffffff&quot;&gt;OOOServlet&lt;/font&gt;" style="rounded=0;whiteSpace=wrap;html=1;labelBackgroundColor=none;fillStyle=auto;strokeColor=#F0F0F0;fontFamily=Helvetica;fontSize=10;fontColor=#007FFF;fillColor=#0066CC;container=0;" parent="fxQP5-2Rpk5uUzQ9qzvW-98" vertex="1">
                    <mxGeometry x="10" y="87.5" width="70" height="15" as="geometry"/>
                </mxCell>
                <mxCell id="fxQP5-2Rpk5uUzQ9qzvW-103" value="：サーブレットクラス" style="text;strokeColor=none;align=left;fillColor=none;html=1;verticalAlign=middle;whiteSpace=wrap;rounded=0;labelBackgroundColor=none;container=0;" parent="fxQP5-2Rpk5uUzQ9qzvW-98" vertex="1">
                    <mxGeometry x="81" y="82" width="129" height="30" as="geometry"/>
                </mxCell>
                <mxCell id="fxQP5-2Rpk5uUzQ9qzvW-104" value="&lt;font color=&quot;#ffffff&quot;&gt;OOO.jsp&lt;/font&gt;" style="rounded=0;whiteSpace=wrap;html=1;labelBackgroundColor=none;fillStyle=auto;strokeColor=#F0F0F0;fontFamily=Helvetica;fontSize=10;fontColor=#007FFF;fillColor=#4D9900;container=0;" parent="fxQP5-2Rpk5uUzQ9qzvW-98" vertex="1">
                    <mxGeometry x="10" y="122.5" width="70" height="15" as="geometry"/>
                </mxCell>
                <mxCell id="fxQP5-2Rpk5uUzQ9qzvW-105" value="：JSPファイル" style="text;strokeColor=none;align=left;fillColor=none;html=1;verticalAlign=middle;whiteSpace=wrap;rounded=0;labelBackgroundColor=none;container=0;" parent="fxQP5-2Rpk5uUzQ9qzvW-98" vertex="1">
                    <mxGeometry x="81" y="115" width="129" height="30" as="geometry"/>
                </mxCell>
                <mxCell id="fxQP5-2Rpk5uUzQ9qzvW-106" value="&lt;font color=&quot;#ffffff&quot;&gt;R or S or A&lt;/font&gt;" style="rounded=0;whiteSpace=wrap;html=1;labelBackgroundColor=none;fillStyle=auto;strokeColor=#F0F0F0;fontFamily=Helvetica;fontSize=10;fontColor=#007FFF;fillColor=#999900;container=0;" parent="fxQP5-2Rpk5uUzQ9qzvW-98" vertex="1">
                    <mxGeometry x="10" y="277" width="70" height="15" as="geometry"/>
                </mxCell>
                <mxCell id="fxQP5-2Rpk5uUzQ9qzvW-107" value="：スコープ&lt;br&gt;(R：Request, S：Session, A：Application)" style="text;strokeColor=none;align=left;fillColor=none;html=1;verticalAlign=middle;whiteSpace=wrap;rounded=0;labelBackgroundColor=none;container=0;" parent="fxQP5-2Rpk5uUzQ9qzvW-98" vertex="1">
                    <mxGeometry x="82.5" y="277" width="149" height="43" as="geometry"/>
                </mxCell>
                <mxCell id="fxQP5-2Rpk5uUzQ9qzvW-108" value="GET" style="text;strokeColor=default;align=center;fillColor=none;html=1;verticalAlign=middle;whiteSpace=wrap;rounded=0;labelBackgroundColor=none;fontSize=10;container=0;" parent="fxQP5-2Rpk5uUzQ9qzvW-98" vertex="1">
                    <mxGeometry x="262.5" y="18.5" width="30" height="15" as="geometry"/>
                </mxCell>
                <mxCell id="fxQP5-2Rpk5uUzQ9qzvW-109" value="：処理内容&lt;br&gt;　(GET,、POST、レスポンス &lt;br&gt;　 フォワード、リダイレクト)" style="text;strokeColor=none;align=left;fillColor=none;html=1;verticalAlign=middle;whiteSpace=wrap;rounded=0;labelBackgroundColor=none;container=0;" parent="fxQP5-2Rpk5uUzQ9qzvW-98" vertex="1">
                    <mxGeometry x="291.5" y="12" width="180" height="55" as="geometry"/>
                </mxCell>
                <mxCell id="fxQP5-2Rpk5uUzQ9qzvW-110" value="" style="text;strokeColor=#990000;align=center;fillColor=none;html=1;verticalAlign=middle;whiteSpace=wrap;rounded=0;labelBackgroundColor=none;fontSize=10;dashed=1;strokeWidth=2;perimeterSpacing=0;dashPattern=1 1;glass=1;container=0;" parent="fxQP5-2Rpk5uUzQ9qzvW-98" vertex="1">
                    <mxGeometry x="262.5" y="75.5" width="30" height="15" as="geometry"/>
                </mxCell>
                <mxCell id="fxQP5-2Rpk5uUzQ9qzvW-111" value="：リクエストパラメータ" style="text;strokeColor=none;align=left;fillColor=none;html=1;verticalAlign=middle;whiteSpace=wrap;rounded=0;labelBackgroundColor=none;container=0;" parent="fxQP5-2Rpk5uUzQ9qzvW-98" vertex="1">
                    <mxGeometry x="291.5" y="69" width="180" height="28" as="geometry"/>
                </mxCell>
                <mxCell id="fxQP5-2Rpk5uUzQ9qzvW-112" value="" style="text;strokeColor=default;align=center;fillColor=none;html=1;verticalAlign=middle;whiteSpace=wrap;rounded=0;labelBackgroundColor=none;fontSize=10;dashed=1;strokeWidth=2;perimeterSpacing=0;dashPattern=1 1;glass=1;container=0;" parent="fxQP5-2Rpk5uUzQ9qzvW-98" vertex="1">
                    <mxGeometry x="262.5" y="109" width="30" height="15" as="geometry"/>
                </mxCell>
                <mxCell id="fxQP5-2Rpk5uUzQ9qzvW-113" value="：処理補足" style="text;strokeColor=none;align=left;fillColor=none;html=1;verticalAlign=middle;whiteSpace=wrap;rounded=0;labelBackgroundColor=none;container=0;" parent="fxQP5-2Rpk5uUzQ9qzvW-98" vertex="1">
                    <mxGeometry x="291.5" y="102" width="180" height="28" as="geometry"/>
                </mxCell>
                <mxCell id="fxQP5-2Rpk5uUzQ9qzvW-114" value="：パラメータの&lt;br&gt;　スコープへの保存と取出" style="text;strokeColor=none;align=left;fillColor=none;html=1;verticalAlign=middle;whiteSpace=wrap;rounded=0;labelBackgroundColor=none;container=0;" parent="fxQP5-2Rpk5uUzQ9qzvW-98" vertex="1">
                    <mxGeometry x="81" y="50" width="169" height="30" as="geometry"/>
                </mxCell>
                <mxCell id="fxQP5-2Rpk5uUzQ9qzvW-115" value="" style="endArrow=async;html=1;rounded=0;shadow=1;labelBackgroundColor=default;strokeColor=#82b366;fontFamily=Helvetica;fontSize=10;fontColor=#FFFFFF;shape=connector;strokeWidth=1;startArrow=none;startFill=0;fillColor=#d5e8d4;jumpStyle=line;jumpSize=10;entryX=0;entryY=0.25;entryDx=0;entryDy=0;dashed=1;endFill=1;" parent="fxQP5-2Rpk5uUzQ9qzvW-98" edge="1">
                    <mxGeometry width="50" height="50" relative="1" as="geometry">
                        <mxPoint x="14" y="58" as="sourcePoint"/>
                        <mxPoint x="76" y="58.875" as="targetPoint"/>
                    </mxGeometry>
                </mxCell>
                <mxCell id="fxQP5-2Rpk5uUzQ9qzvW-116" value="：機能ごとの括り" style="text;strokeColor=none;align=left;fillColor=none;html=1;verticalAlign=middle;whiteSpace=wrap;rounded=0;labelBackgroundColor=none;container=0;" parent="fxQP5-2Rpk5uUzQ9qzvW-98" vertex="1">
                    <mxGeometry x="292.5" y="133.5" width="180" height="28" as="geometry"/>
                </mxCell>
                <mxCell id="fxQP5-2Rpk5uUzQ9qzvW-117" value="：処理領域ごとの括り&lt;br&gt;　M：モデル層&lt;br&gt;　V：ビュー層&lt;br&gt;　C：コントローラ層" style="text;strokeColor=none;align=left;fillColor=none;html=1;verticalAlign=middle;whiteSpace=wrap;rounded=0;labelBackgroundColor=none;container=0;" parent="fxQP5-2Rpk5uUzQ9qzvW-98" vertex="1">
                    <mxGeometry x="293.5" y="148" width="180" height="102" as="geometry"/>
                </mxCell>
                <mxCell id="fxQP5-2Rpk5uUzQ9qzvW-118" value="" style="endArrow=classic;startArrow=classic;html=1;rounded=0;fontSize=10;jumpStyle=line;jumpSize=10;strokeWidth=3;" parent="fxQP5-2Rpk5uUzQ9qzvW-98" edge="1">
                    <mxGeometry width="50" height="50" relative="1" as="geometry">
                        <mxPoint x="11" y="26" as="sourcePoint"/>
                        <mxPoint x="80" y="26" as="targetPoint"/>
                    </mxGeometry>
                </mxCell>
                <mxCell id="fxQP5-2Rpk5uUzQ9qzvW-119" value="：データベースとの連係" style="text;strokeColor=none;align=left;fillColor=none;html=1;verticalAlign=middle;whiteSpace=wrap;rounded=0;labelBackgroundColor=none;container=0;" parent="fxQP5-2Rpk5uUzQ9qzvW-98" vertex="1">
                    <mxGeometry x="81" y="20" width="159" height="13" as="geometry"/>
                </mxCell>
                <mxCell id="fxQP5-2Rpk5uUzQ9qzvW-120" value="&lt;font color=&quot;#ffffff&quot;&gt;BO&lt;/font&gt;" style="rounded=0;whiteSpace=wrap;html=1;labelBackgroundColor=none;fillStyle=auto;strokeColor=#3700CC;fontFamily=Helvetica;fontSize=10;fontColor=#ffffff;fillColor=#6a00ff;container=0;" parent="fxQP5-2Rpk5uUzQ9qzvW-98" vertex="1">
                    <mxGeometry x="10" y="159.5" width="70" height="15" as="geometry"/>
                </mxCell>
                <mxCell id="fxQP5-2Rpk5uUzQ9qzvW-121" value="：BO(business Object)&lt;br&gt;　サービス層の動き" style="text;strokeColor=none;align=left;fillColor=none;html=1;verticalAlign=middle;whiteSpace=wrap;rounded=0;labelBackgroundColor=none;container=0;" parent="fxQP5-2Rpk5uUzQ9qzvW-98" vertex="1">
                    <mxGeometry x="81" y="158" width="129" height="30" as="geometry"/>
                </mxCell>
                <mxCell id="fxQP5-2Rpk5uUzQ9qzvW-122" value="&lt;font color=&quot;#ffffff&quot;&gt;DAO&lt;/font&gt;" style="rounded=0;whiteSpace=wrap;html=1;labelBackgroundColor=none;fillStyle=auto;strokeColor=#6F0000;fontFamily=Helvetica;fontSize=10;fontColor=#ffffff;fillColor=#a20025;container=0;" parent="fxQP5-2Rpk5uUzQ9qzvW-98" vertex="1">
                    <mxGeometry x="10" y="194.5" width="70" height="15" as="geometry"/>
                </mxCell>
                <mxCell id="fxQP5-2Rpk5uUzQ9qzvW-123" value="：DAO&lt;br&gt;　(Database Access Object)" style="text;strokeColor=none;align=left;fillColor=none;html=1;verticalAlign=middle;whiteSpace=wrap;rounded=0;labelBackgroundColor=none;container=0;" parent="fxQP5-2Rpk5uUzQ9qzvW-98" vertex="1">
                    <mxGeometry x="81" y="193" width="169" height="30" as="geometry"/>
                </mxCell>
                <mxCell id="fxQP5-2Rpk5uUzQ9qzvW-124" value="&lt;font color=&quot;#ffffff&quot;&gt;OO&lt;/font&gt;" style="rounded=0;whiteSpace=wrap;html=1;labelBackgroundColor=none;fillStyle=auto;strokeColor=#C73500;fontFamily=Helvetica;fontSize=10;fillColor=#fa6800;container=0;fontColor=#000000;" parent="fxQP5-2Rpk5uUzQ9qzvW-98" vertex="1">
                    <mxGeometry x="10" y="228.5" width="70" height="15" as="geometry"/>
                </mxCell>
                <mxCell id="fxQP5-2Rpk5uUzQ9qzvW-125" value="：その他のクラス&lt;br&gt;　(サービス層、&lt;br&gt;　インフラストラクチャ層)" style="text;strokeColor=none;align=left;fillColor=none;html=1;verticalAlign=middle;whiteSpace=wrap;rounded=0;labelBackgroundColor=none;container=0;" parent="fxQP5-2Rpk5uUzQ9qzvW-98" vertex="1">
                    <mxGeometry x="81" y="227" width="169" height="43" as="geometry"/>
                </mxCell>
                <mxCell id="1973" style="edgeStyle=none;html=1;entryX=0;entryY=0.5;entryDx=0;entryDy=0;fontSize=10;fillColor=none;" parent="fxQP5-2Rpk5uUzQ9qzvW-1" target="2000" edge="1">
                    <mxGeometry relative="1" as="geometry">
                        <mxPoint x="-200" y="173" as="sourcePoint"/>
                        <mxPoint x="-106" y="180" as="targetPoint"/>
                    </mxGeometry>
                </mxCell>
                <mxCell id="1976" style="edgeStyle=none;rounded=0;html=1;exitX=0;exitY=0.5;exitDx=0;exitDy=0;fontSize=11;fontColor=#000000;" parent="fxQP5-2Rpk5uUzQ9qzvW-1" source="2005" edge="1">
                    <mxGeometry relative="1" as="geometry">
                        <mxPoint x="-200" y="630" as="targetPoint"/>
                    </mxGeometry>
                </mxCell>
                <mxCell id="1992" style="edgeStyle=none;rounded=0;html=1;exitX=0.75;exitY=1;exitDx=0;exitDy=0;entryX=0;entryY=0.5;entryDx=0;entryDy=0;fontSize=11;fontColor=#000000;fillColor=none;" parent="fxQP5-2Rpk5uUzQ9qzvW-1" source="2000" target="2770" edge="1">
                    <mxGeometry relative="1" as="geometry">
                        <Array as="points">
                            <mxPoint x="60" y="463"/>
                        </Array>
                        <mxPoint x="83.25" y="422.5" as="targetPoint"/>
                    </mxGeometry>
                </mxCell>
                <mxCell id="1998" value="フォワード" style="text;strokeColor=default;align=center;fillColor=none;html=1;verticalAlign=middle;whiteSpace=wrap;rounded=0;labelBackgroundColor=none;fontSize=10;" parent="fxQP5-2Rpk5uUzQ9qzvW-1" vertex="1">
                    <mxGeometry x="68.63" y="195" width="59" height="15" as="geometry"/>
                </mxCell>
                <mxCell id="1999" value="" style="group" parent="fxQP5-2Rpk5uUzQ9qzvW-1" vertex="1" connectable="0">
                    <mxGeometry y="140" width="80" height="45" as="geometry"/>
                </mxCell>
                <mxCell id="2000" value="&lt;span style=&quot;color: rgb(255, 255, 255);&quot;&gt;RoadmapServlet&lt;/span&gt;&lt;font color=&quot;#ffffff&quot;&gt;&lt;br&gt;doGet()&lt;br&gt;&lt;/font&gt;" style="rounded=0;whiteSpace=wrap;html=1;labelBackgroundColor=none;fillStyle=auto;strokeColor=#F0F0F0;fontFamily=Helvetica;fontSize=10;fontColor=#007FFF;fillColor=#0066CC;" parent="1999" vertex="1">
                    <mxGeometry y="20" width="80" height="25" as="geometry"/>
                </mxCell>
                <mxCell id="2001" value="&lt;span style=&quot;font-size: 11px;&quot;&gt;Servlet&lt;/span&gt;" style="text;strokeColor=none;align=left;fillColor=none;html=1;verticalAlign=middle;whiteSpace=wrap;rounded=0;labelBackgroundColor=none;fontSize=10;" parent="1999" vertex="1">
                    <mxGeometry x="17" width="46" height="20" as="geometry"/>
                </mxCell>
                <mxCell id="2002" value="&lt;span style=&quot;font-size: 11px;&quot;&gt;保存(roadmapList)&lt;br&gt;削除(currentRoadmap)&lt;br&gt;&lt;/span&gt;" style="text;strokeColor=none;align=left;fillColor=none;html=1;verticalAlign=middle;whiteSpace=wrap;rounded=0;labelBackgroundColor=none;fontSize=10;" parent="fxQP5-2Rpk5uUzQ9qzvW-1" vertex="1">
                    <mxGeometry x="-80" y="403.25" width="120" height="30" as="geometry"/>
                </mxCell>
                <mxCell id="2003" value="" style="endArrow=async;html=1;rounded=0;shadow=1;labelBackgroundColor=default;strokeColor=#82b366;fontFamily=Helvetica;fontSize=10;fontColor=#FFFFFF;shape=connector;strokeWidth=1;startArrow=none;startFill=0;fillColor=#d5e8d4;jumpStyle=line;jumpSize=10;entryX=0.75;entryY=1;entryDx=0;entryDy=0;dashed=1;endFill=1;" parent="fxQP5-2Rpk5uUzQ9qzvW-1" target="2012" edge="1">
                    <mxGeometry width="50" height="50" relative="1" as="geometry">
                        <mxPoint x="58" y="440" as="sourcePoint"/>
                        <mxPoint x="131.75" y="310.875" as="targetPoint"/>
                        <Array as="points">
                            <mxPoint x="-88" y="440"/>
                        </Array>
                    </mxGeometry>
                </mxCell>
                <mxCell id="2004" value="" style="group" parent="fxQP5-2Rpk5uUzQ9qzvW-1" vertex="1" connectable="0">
                    <mxGeometry x="40" y="602.5" width="80" height="35" as="geometry"/>
                </mxCell>
                <mxCell id="2005" value="&lt;span style=&quot;color: rgb(255, 255, 255);&quot;&gt;roadmap.jsp&lt;/span&gt;" style="rounded=0;whiteSpace=wrap;html=1;labelBackgroundColor=none;fillStyle=auto;strokeColor=#F0F0F0;fontFamily=Helvetica;fontSize=10;fontColor=#007FFF;fillColor=#4D9900;" parent="2004" vertex="1">
                    <mxGeometry x="-40" y="20" width="80" height="15" as="geometry"/>
                </mxCell>
                <mxCell id="2006" value="&lt;span style=&quot;font-size: 11px;&quot;&gt;JSP&lt;/span&gt;" style="text;strokeColor=none;align=left;fillColor=none;html=1;verticalAlign=middle;whiteSpace=wrap;rounded=0;labelBackgroundColor=none;fontSize=10;" parent="2004" vertex="1">
                    <mxGeometry x="-15" width="30" height="20" as="geometry"/>
                </mxCell>
                <mxCell id="2010" value="action=delete" style="text;strokeColor=#990000;align=center;fillColor=none;html=1;verticalAlign=middle;whiteSpace=wrap;rounded=0;labelBackgroundColor=none;fontSize=10;dashed=1;strokeWidth=2;perimeterSpacing=0;dashPattern=1 1;glass=1;" parent="fxQP5-2Rpk5uUzQ9qzvW-1" vertex="1">
                    <mxGeometry x="-180" y="180" width="70" height="22.37" as="geometry"/>
                </mxCell>
                <mxCell id="2011" value="GET" style="text;strokeColor=default;align=center;fillColor=none;html=1;verticalAlign=middle;whiteSpace=wrap;rounded=0;labelBackgroundColor=none;fontSize=10;" parent="fxQP5-2Rpk5uUzQ9qzvW-1" vertex="1">
                    <mxGeometry x="-160" y="153.4999999999999" width="30" height="15" as="geometry"/>
                </mxCell>
                <mxCell id="2012" value="&lt;font color=&quot;#ffffff&quot;&gt;S：&lt;br&gt;&lt;/font&gt;&lt;span style=&quot;color: rgb(255, 255, 255);&quot;&gt;&quot;currentRoadmapId&quot; 表示中のRoadmapIdインスタンス&lt;/span&gt;&lt;span style=&quot;color: rgb(255, 255, 255);&quot;&gt;&lt;br&gt;&lt;/span&gt;&lt;span style=&quot;color: rgb(255, 255, 255);&quot;&gt;&quot;roadmapList&quot; Roadmapインスタンスのリスト&lt;/span&gt;&lt;span style=&quot;color: rgb(255, 255, 255);&quot;&gt;&lt;br&gt;&lt;/span&gt;" style="rounded=0;whiteSpace=wrap;html=1;labelBackgroundColor=none;fillStyle=auto;strokeColor=#F0F0F0;fontFamily=Helvetica;fontSize=10;fontColor=#007FFF;fillColor=#999900;align=left;" parent="fxQP5-2Rpk5uUzQ9qzvW-1" vertex="1">
                    <mxGeometry x="-280" y="275" width="255.5" height="35" as="geometry"/>
                </mxCell>
                <mxCell id="2013" value="" style="endArrow=async;html=1;rounded=0;shadow=1;labelBackgroundColor=default;strokeColor=#82b366;fontFamily=Helvetica;fontSize=10;fontColor=#FFFFFF;shape=connector;strokeWidth=1;startArrow=none;startFill=0;fillColor=#d5e8d4;jumpStyle=line;jumpSize=10;entryX=0.5;entryY=1;entryDx=0;entryDy=0;dashed=1;endFill=1;exitX=1;exitY=0.5;exitDx=0;exitDy=0;" parent="fxQP5-2Rpk5uUzQ9qzvW-1" source="2012" target="2000" edge="1">
                    <mxGeometry width="50" height="50" relative="1" as="geometry">
                        <mxPoint x="110" y="220" as="sourcePoint"/>
                        <mxPoint x="172" y="220.875" as="targetPoint"/>
                        <Array as="points">
                            <mxPoint x="40" y="293"/>
                        </Array>
                    </mxGeometry>
                </mxCell>
                <mxCell id="2014" value="取得" style="text;strokeColor=none;align=left;fillColor=none;html=1;verticalAlign=middle;whiteSpace=wrap;rounded=0;labelBackgroundColor=none;fontSize=10;" parent="fxQP5-2Rpk5uUzQ9qzvW-1" vertex="1">
                    <mxGeometry y="235" width="35" height="30" as="geometry"/>
                </mxCell>
                <mxCell id="2015" value="" style="group" parent="fxQP5-2Rpk5uUzQ9qzvW-1" vertex="1" connectable="0">
                    <mxGeometry x="279" y="260" width="107.93" height="40" as="geometry"/>
                </mxCell>
                <mxCell id="2016" value="&lt;span style=&quot;font-size: 11px;&quot;&gt;BO&lt;/span&gt;" style="text;strokeColor=none;align=left;fillColor=none;html=1;verticalAlign=middle;whiteSpace=wrap;rounded=0;labelBackgroundColor=none;fontSize=10;" parent="2015" vertex="1">
                    <mxGeometry x="34.66476310399712" width="38.6082606071787" height="20" as="geometry"/>
                </mxCell>
                <mxCell id="2017" value="&lt;span style=&quot;text-align: start;&quot;&gt;&lt;font face=&quot;monospace&quot; color=&quot;rgba(0, 0, 0, 0)&quot;&gt;&lt;span style=&quot;font-size: 0px;&quot;&gt;%3CmxGraphModel%3E%3Croot%3E%3CmxCell%20id%3D%220%22%2F%3E%3CmxCell%20id%3D%221%22%20parent%3D%220%22%2F%3E%3CmxCell%20id%3D%222%22%20value%3D%22%26lt%3Bfont%20color%3D%26quot%3B%23ffffff%26quot%3B%26gt%3BS%EF%BC%9A%26lt%3Bbr%26gt%3B%26lt%3B%2Ffont%26gt%3B%26lt%3Bspan%20style%3D%26quot%3Bcolor%3A%20rgb(255%2C%20255%2C%20255)%3B%26quot%3B%26gt%3B%26quot%3BuserId%26quot%3B%20%E3%83%A6%E3%83%BC%E3%82%B6%E3%83%BCID%26lt%3Bbr%26gt%3B%26lt%3B%2Fspan%26gt%3B%22%20style%3D%22rounded%3D0%3BwhiteSpace%3Dwrap%3Bhtml%3D1%3BlabelBackgroundColor%3Dnone%3BfillStyle%3Dauto%3BstrokeColor%3D%23F0F0F0%3BfontFamily%3DHelvetica%3BfontSize%3D10%3BfontColor%3D%23007FFF%3BfillColor%3D%23999900%3Balign%3Dleft%3B%22%20vertex%3D%221%22%20parent%3D%221%22%3E%3CmxGeometry%20x%3D%22116.5%22%20y%3D%222320%22%20width%3D%22103.5%22%20height%3D%2230%22%20as%3D%22geometry%22%2F%3E%3C%2FmxCell%3E%3C%2Froot%3E%3C%2FmxGraphModel%3Edaaaaaa&lt;/span&gt;&lt;/font&gt;&lt;/span&gt;&lt;span style=&quot;background-color: initial;&quot;&gt;RoadmapLogic&lt;/span&gt;&lt;span style=&quot;text-align: start;&quot;&gt;&lt;font face=&quot;monospace&quot; color=&quot;rgba(0, 0, 0, 0)&quot;&gt;&lt;span style=&quot;font-size: 0px;&quot;&gt;&lt;br&gt;&lt;/span&gt;&lt;/font&gt;&lt;/span&gt;&lt;font color=&quot;#ffffff&quot;&gt;deleteRoadmap()&lt;br&gt;&lt;/font&gt;" style="rounded=0;whiteSpace=wrap;html=1;labelBackgroundColor=none;fillStyle=auto;strokeColor=#3700CC;fontFamily=Helvetica;fontSize=10;fontColor=#ffffff;fillColor=#6a00ff;container=0;" parent="2015" vertex="1">
                    <mxGeometry y="20" width="107.92999999999999" height="25" as="geometry"/>
                </mxCell>
                <mxCell id="2018" style="edgeStyle=none;html=1;exitX=0;exitY=0.75;exitDx=0;exitDy=0;" parent="fxQP5-2Rpk5uUzQ9qzvW-1" source="2017" edge="1">
                    <mxGeometry relative="1" as="geometry">
                        <mxPoint x="60" y="299" as="targetPoint"/>
                    </mxGeometry>
                </mxCell>
                <mxCell id="2019" style="edgeStyle=none;html=1;entryX=0;entryY=0.25;entryDx=0;entryDy=0;" parent="fxQP5-2Rpk5uUzQ9qzvW-1" target="2017" edge="1">
                    <mxGeometry relative="1" as="geometry">
                        <mxPoint x="70" y="309" as="targetPoint"/>
                        <mxPoint x="60" y="286.0000000000002" as="sourcePoint"/>
                    </mxGeometry>
                </mxCell>
                <mxCell id="2029" value="" style="group" parent="fxQP5-2Rpk5uUzQ9qzvW-1" vertex="1" connectable="0">
                    <mxGeometry x="743.75" y="180" width="73" height="111.75" as="geometry"/>
                </mxCell>
                <mxCell id="2030" value="" style="shape=cylinder3;whiteSpace=wrap;html=1;boundedLbl=1;backgroundOutline=1;size=15;fontSize=11;fillColor=#f5f5f5;fontColor=#333333;strokeColor=#666666;" parent="2029" vertex="1">
                    <mxGeometry x="6.5" y="5" width="60" height="80" as="geometry"/>
                </mxCell>
                <mxCell id="2031" value="&lt;span style=&quot;font-size: 11px;&quot;&gt;ROADMAP_IDS&lt;br&gt;テーブル&lt;br&gt;&lt;/span&gt;" style="text;strokeColor=none;align=center;fillColor=none;html=1;verticalAlign=middle;whiteSpace=wrap;rounded=0;labelBackgroundColor=none;fontSize=10;" parent="2029" vertex="1">
                    <mxGeometry y="87.75" width="73" height="20" as="geometry"/>
                </mxCell>
                <mxCell id="2041" value="&lt;span style=&quot;color: rgb(255, 255, 255);&quot;&gt;RoadmapId&lt;/span&gt;" style="text;strokeColor=none;align=left;fillColor=none;html=1;verticalAlign=middle;whiteSpace=wrap;rounded=0;labelBackgroundColor=none;fontSize=10;" parent="fxQP5-2Rpk5uUzQ9qzvW-1" vertex="1">
                    <mxGeometry x="95" y="264" width="77.25" height="20" as="geometry"/>
                </mxCell>
                <mxCell id="2042" value="&lt;span style=&quot;font-size: 11px;&quot;&gt;処理完了：true&lt;br&gt;処理未完了：false&lt;br&gt;&lt;/span&gt;" style="text;strokeColor=none;align=left;fillColor=none;html=1;verticalAlign=middle;whiteSpace=wrap;rounded=0;labelBackgroundColor=none;fontSize=10;" parent="fxQP5-2Rpk5uUzQ9qzvW-1" vertex="1">
                    <mxGeometry x="90" y="310" width="96.5" height="20" as="geometry"/>
                </mxCell>
                <mxCell id="2079" value="" style="endArrow=async;html=1;rounded=0;shadow=1;labelBackgroundColor=default;strokeColor=#82b366;fontFamily=Helvetica;fontSize=10;fontColor=#FFFFFF;shape=connector;strokeWidth=1;startArrow=none;startFill=0;fillColor=#d5e8d4;jumpStyle=line;jumpSize=10;entryX=0.25;entryY=0;entryDx=0;entryDy=0;dashed=1;endFill=1;exitX=0.5;exitY=1;exitDx=0;exitDy=0;" parent="fxQP5-2Rpk5uUzQ9qzvW-1" source="2012" target="2005" edge="1">
                    <mxGeometry width="50" height="50" relative="1" as="geometry">
                        <mxPoint x="-132" y="420" as="sourcePoint"/>
                        <mxPoint x="-70" y="420.875" as="targetPoint"/>
                        <Array as="points">
                            <mxPoint x="-152" y="480"/>
                            <mxPoint x="20" y="480"/>
                        </Array>
                    </mxGeometry>
                </mxCell>
                <mxCell id="2080" value="取得&lt;span style=&quot;font-size: 11px;&quot;&gt;(roadmapList)&lt;/span&gt;" style="text;strokeColor=none;align=left;fillColor=none;html=1;verticalAlign=middle;whiteSpace=wrap;rounded=0;labelBackgroundColor=none;fontSize=10;" parent="fxQP5-2Rpk5uUzQ9qzvW-1" vertex="1">
                    <mxGeometry x="-140" y="449.13" width="30" height="30" as="geometry"/>
                </mxCell>
                <mxCell id="2094" value="" style="group" parent="fxQP5-2Rpk5uUzQ9qzvW-1" vertex="1" connectable="0">
                    <mxGeometry x="560" y="140" width="99.75" height="40" as="geometry"/>
                </mxCell>
                <mxCell id="2095" value="RoadmapIdsDAO&lt;br&gt;deleteBy&lt;span style=&quot;text-align: left;&quot;&gt;RoadmapId&lt;/span&gt;()" style="rounded=0;whiteSpace=wrap;html=1;labelBackgroundColor=none;fillStyle=auto;strokeColor=#6F0000;fontFamily=Helvetica;fontSize=10;fontColor=#ffffff;fillColor=#a20025;container=0;" parent="2094" vertex="1">
                    <mxGeometry y="20" width="99.75000000000003" height="25" as="geometry"/>
                </mxCell>
                <mxCell id="2096" value="&lt;span style=&quot;font-size: 11px;&quot;&gt;DAO&lt;/span&gt;" style="text;strokeColor=none;align=left;fillColor=none;html=1;verticalAlign=middle;whiteSpace=wrap;rounded=0;labelBackgroundColor=none;fontSize=10;" parent="2094" vertex="1">
                    <mxGeometry x="28.9484265734266" width="41.85314685314686" height="20" as="geometry"/>
                </mxCell>
                <mxCell id="2100" value="" style="endArrow=classic;startArrow=classic;html=1;rounded=0;fontSize=10;jumpStyle=line;jumpSize=10;strokeWidth=3;exitX=1;exitY=0.5;exitDx=0;exitDy=0;entryX=0;entryY=0;entryDx=0;entryDy=27.5;entryPerimeter=0;" parent="fxQP5-2Rpk5uUzQ9qzvW-1" source="2095" target="2030" edge="1">
                    <mxGeometry width="50" height="50" relative="1" as="geometry">
                        <mxPoint x="723.9400000000005" y="173" as="sourcePoint"/>
                        <mxPoint x="750.25" y="172" as="targetPoint"/>
                    </mxGeometry>
                </mxCell>
                <mxCell id="2101" value="" style="group" parent="fxQP5-2Rpk5uUzQ9qzvW-1" vertex="1" connectable="0">
                    <mxGeometry x="540" y="80" width="206.31" height="78.25" as="geometry"/>
                </mxCell>
                <mxCell id="2102" value="&lt;font color=&quot;#000000&quot;&gt;&lt;br&gt;&lt;/font&gt;" style="shape=callout;whiteSpace=wrap;html=1;perimeter=calloutPerimeter;fontSize=11;fillColor=#dae8fc;strokeColor=#6c8ebf;base=13;position2=0.47;size=30;position=0.47;align=left;" parent="2101" vertex="1">
                    <mxGeometry y="1.908536585365853" width="195.9945" height="76.34146341463413" as="geometry"/>
                </mxCell>
                <mxCell id="2103" value="DELETE文：ROADMAP_ID=currentRoadmapのレコードを削除" style="text;strokeColor=none;align=left;fillColor=none;html=1;verticalAlign=middle;whiteSpace=wrap;rounded=0;labelBackgroundColor=none;fontSize=10;fontColor=#000000;" parent="2101" vertex="1">
                    <mxGeometry y="0.8500000000000001" width="192.55599999999998" height="50.89" as="geometry"/>
                </mxCell>
                <mxCell id="2104" style="edgeStyle=none;html=1;exitX=0.75;exitY=0;exitDx=0;exitDy=0;entryX=0;entryY=0.25;entryDx=0;entryDy=0;rounded=0;" parent="fxQP5-2Rpk5uUzQ9qzvW-1" source="2017" target="2095" edge="1">
                    <mxGeometry relative="1" as="geometry">
                        <Array as="points">
                            <mxPoint x="361" y="166"/>
                        </Array>
                    </mxGeometry>
                </mxCell>
                <mxCell id="2105" style="edgeStyle=none;rounded=0;html=1;exitX=0;exitY=0.75;exitDx=0;exitDy=0;entryX=0.829;entryY=-0.004;entryDx=0;entryDy=0;entryPerimeter=0;" parent="fxQP5-2Rpk5uUzQ9qzvW-1" source="2095" target="2017" edge="1">
                    <mxGeometry relative="1" as="geometry">
                        <Array as="points">
                            <mxPoint x="369" y="180"/>
                        </Array>
                    </mxGeometry>
                </mxCell>
                <mxCell id="2106" value="&lt;span style=&quot;font-size: 11px;&quot;&gt;処理件数&lt;/span&gt;" style="text;strokeColor=none;align=left;fillColor=none;html=1;verticalAlign=middle;whiteSpace=wrap;rounded=0;labelBackgroundColor=none;fontSize=10;" parent="fxQP5-2Rpk5uUzQ9qzvW-1" vertex="1">
                    <mxGeometry x="401.19" y="185" width="56.5" height="20" as="geometry"/>
                </mxCell>
                <mxCell id="2192" value="" style="group" parent="fxQP5-2Rpk5uUzQ9qzvW-1" vertex="1" connectable="0">
                    <mxGeometry x="550" y="210" width="170" height="68.25" as="geometry"/>
                </mxCell>
                <mxCell id="2193" value="&lt;font color=&quot;#000000&quot;&gt;&lt;br&gt;&lt;/font&gt;" style="shape=callout;whiteSpace=wrap;html=1;perimeter=calloutPerimeter;fontSize=11;fillColor=#dae8fc;strokeColor=#6c8ebf;base=13;position2=0.47;size=30;position=0.47;align=left;" parent="2192" vertex="1">
                    <mxGeometry y="-10" width="161.5" height="78.25" as="geometry"/>
                </mxCell>
                <mxCell id="2194" value="UPDATE文：ROADMAP_IDがcurrentRoadmap以上のレコードに関して、該当するROADMAP_IDを-1" style="text;strokeColor=none;align=left;fillColor=none;html=1;verticalAlign=middle;whiteSpace=wrap;rounded=0;labelBackgroundColor=none;fontSize=10;fontColor=#000000;" parent="2192" vertex="1">
                    <mxGeometry y="-8.258626198083068" width="158.66666666666663" height="44.386485623003196" as="geometry"/>
                </mxCell>
                <mxCell id="2196" value="&lt;span style=&quot;color: rgb(255, 255, 255);&quot;&gt;RoadmapId&lt;/span&gt;" style="text;strokeColor=none;align=left;fillColor=none;html=1;verticalAlign=middle;whiteSpace=wrap;rounded=0;labelBackgroundColor=none;fontSize=10;" parent="fxQP5-2Rpk5uUzQ9qzvW-1" vertex="1">
                    <mxGeometry x="397.03999999999996" y="138.25" width="89.92" height="20" as="geometry"/>
                </mxCell>
                <mxCell id="2462" value="" style="group" parent="fxQP5-2Rpk5uUzQ9qzvW-1" vertex="1" connectable="0">
                    <mxGeometry x="66.52499999999998" y="219.34" width="203.67000000000002" height="52.28" as="geometry"/>
                </mxCell>
                <mxCell id="2008" value="&lt;font color=&quot;#000000&quot;&gt;&lt;br&gt;&lt;/font&gt;" style="shape=callout;whiteSpace=wrap;html=1;perimeter=calloutPerimeter;fontSize=11;fillColor=#dae8fc;strokeColor=#6c8ebf;base=19;position2=0.47;size=30;position=0.47;align=left;rotation=90;" parent="2462" vertex="1">
                    <mxGeometry x="80.39500000000004" y="-78.41999999999999" width="42.88" height="203.67" as="geometry"/>
                </mxCell>
                <mxCell id="2009" value="取得したcurrentRoadmapを引数として渡して、データベース上の該当ロードマップの内容を削除" style="text;strokeColor=none;align=left;fillColor=none;html=1;verticalAlign=middle;whiteSpace=wrap;rounded=0;labelBackgroundColor=none;fontSize=10;fontColor=#000000;" parent="2462" vertex="1">
                    <mxGeometry x="35.795000000000016" width="167.68" height="52.28" as="geometry"/>
                </mxCell>
                <mxCell id="2464" value="" style="group" parent="fxQP5-2Rpk5uUzQ9qzvW-1" vertex="1" connectable="0">
                    <mxGeometry x="510" y="260" width="149.75" height="40" as="geometry"/>
                </mxCell>
                <mxCell id="2465" value="RoadmapIdsDAO&lt;br&gt;updateAfterDeleteBy&lt;span style=&quot;text-align: left;&quot;&gt;RoadmapId&lt;/span&gt;()" style="rounded=0;whiteSpace=wrap;html=1;labelBackgroundColor=none;fillStyle=auto;strokeColor=#6F0000;fontFamily=Helvetica;fontSize=10;fontColor=#ffffff;fillColor=#a20025;container=0;" parent="2464" vertex="1">
                    <mxGeometry y="20" width="149.75000000000003" height="25" as="geometry"/>
                </mxCell>
                <mxCell id="2466" value="&lt;span style=&quot;font-size: 11px;&quot;&gt;DAO&lt;/span&gt;" style="text;strokeColor=none;align=left;fillColor=none;html=1;verticalAlign=middle;whiteSpace=wrap;rounded=0;labelBackgroundColor=none;fontSize=10;" parent="2464" vertex="1">
                    <mxGeometry x="43.45891608391613" width="62.83216783216785" height="20" as="geometry"/>
                </mxCell>
                <mxCell id="2467" style="edgeStyle=none;html=1;exitX=1;exitY=0.25;exitDx=0;exitDy=0;entryX=0;entryY=0.25;entryDx=0;entryDy=0;" parent="fxQP5-2Rpk5uUzQ9qzvW-1" source="2017" target="2465" edge="1">
                    <mxGeometry relative="1" as="geometry">
                        <mxPoint x="490" y="286.5" as="targetPoint"/>
                    </mxGeometry>
                </mxCell>
                <mxCell id="2468" style="edgeStyle=none;html=1;exitX=0;exitY=0.75;exitDx=0;exitDy=0;entryX=1;entryY=0.75;entryDx=0;entryDy=0;" parent="fxQP5-2Rpk5uUzQ9qzvW-1" source="2465" target="2017" edge="1">
                    <mxGeometry relative="1" as="geometry"/>
                </mxCell>
                <mxCell id="2469" value="" style="endArrow=classic;startArrow=classic;html=1;rounded=0;fontSize=10;jumpStyle=line;jumpSize=10;strokeWidth=3;exitX=1;exitY=0.5;exitDx=0;exitDy=0;entryX=0;entryY=0;entryDx=0;entryDy=52.5;entryPerimeter=0;" parent="fxQP5-2Rpk5uUzQ9qzvW-1" source="2465" target="2030" edge="1">
                    <mxGeometry width="50" height="50" relative="1" as="geometry">
                        <mxPoint x="669.75" y="182.5" as="sourcePoint"/>
                        <mxPoint x="760.25" y="222.5" as="targetPoint"/>
                    </mxGeometry>
                </mxCell>
                <mxCell id="2470" value="&lt;span style=&quot;color: rgb(255, 255, 255);&quot;&gt;RoadmapId&lt;/span&gt;" style="text;strokeColor=none;align=left;fillColor=none;html=1;verticalAlign=middle;whiteSpace=wrap;rounded=0;labelBackgroundColor=none;fontSize=10;" parent="fxQP5-2Rpk5uUzQ9qzvW-1" vertex="1">
                    <mxGeometry x="429.99999999999994" y="261.87" width="89.92" height="20" as="geometry"/>
                </mxCell>
                <mxCell id="2471" value="&lt;span style=&quot;font-size: 11px;&quot;&gt;処理件数&lt;/span&gt;" style="text;strokeColor=none;align=left;fillColor=none;html=1;verticalAlign=middle;whiteSpace=wrap;rounded=0;labelBackgroundColor=none;fontSize=10;" parent="fxQP5-2Rpk5uUzQ9qzvW-1" vertex="1">
                    <mxGeometry x="436.71000000000004" y="303" width="56.5" height="20" as="geometry"/>
                </mxCell>
                <mxCell id="2472" value="" style="group" parent="fxQP5-2Rpk5uUzQ9qzvW-1" vertex="1" connectable="0">
                    <mxGeometry x="752.8" y="430" width="73" height="111.75" as="geometry"/>
                </mxCell>
                <mxCell id="2473" value="" style="shape=cylinder3;whiteSpace=wrap;html=1;boundedLbl=1;backgroundOutline=1;size=15;fontSize=11;fillColor=#f5f5f5;fontColor=#333333;strokeColor=#666666;" parent="2472" vertex="1">
                    <mxGeometry x="6.5" y="5" width="60" height="80" as="geometry"/>
                </mxCell>
                <mxCell id="2474" value="&lt;span style=&quot;font-size: 11px;&quot;&gt;PARENT_ELEMENTS&lt;br&gt;テーブル&lt;br&gt;&lt;/span&gt;" style="text;strokeColor=none;align=center;fillColor=none;html=1;verticalAlign=middle;whiteSpace=wrap;rounded=0;labelBackgroundColor=none;fontSize=10;" parent="2472" vertex="1">
                    <mxGeometry y="87.75" width="73" height="20" as="geometry"/>
                </mxCell>
                <mxCell id="2475" value="" style="group" parent="fxQP5-2Rpk5uUzQ9qzvW-1" vertex="1" connectable="0">
                    <mxGeometry x="569.05" y="390" width="99.75" height="40" as="geometry"/>
                </mxCell>
                <mxCell id="2476" value="ParentElementsDAO&lt;br&gt;deleteBy&lt;span style=&quot;text-align: left;&quot;&gt;RoadmapId&lt;/span&gt;()" style="rounded=0;whiteSpace=wrap;html=1;labelBackgroundColor=none;fillStyle=auto;strokeColor=#6F0000;fontFamily=Helvetica;fontSize=10;fontColor=#ffffff;fillColor=#a20025;container=0;" parent="2475" vertex="1">
                    <mxGeometry y="20" width="99.75000000000003" height="25" as="geometry"/>
                </mxCell>
                <mxCell id="2477" value="&lt;span style=&quot;font-size: 11px;&quot;&gt;DAO&lt;/span&gt;" style="text;strokeColor=none;align=left;fillColor=none;html=1;verticalAlign=middle;whiteSpace=wrap;rounded=0;labelBackgroundColor=none;fontSize=10;" parent="2475" vertex="1">
                    <mxGeometry x="28.9484265734266" width="41.85314685314686" height="20" as="geometry"/>
                </mxCell>
                <mxCell id="2478" value="" style="endArrow=classic;startArrow=classic;html=1;rounded=0;fontSize=10;jumpStyle=line;jumpSize=10;strokeWidth=3;exitX=1;exitY=0.5;exitDx=0;exitDy=0;entryX=0;entryY=0;entryDx=0;entryDy=27.5;entryPerimeter=0;" parent="fxQP5-2Rpk5uUzQ9qzvW-1" source="2476" target="2473" edge="1">
                    <mxGeometry width="50" height="50" relative="1" as="geometry">
                        <mxPoint x="732.9900000000005" y="423" as="sourcePoint"/>
                        <mxPoint x="759.3" y="422" as="targetPoint"/>
                    </mxGeometry>
                </mxCell>
                <mxCell id="2479" value="" style="group" parent="fxQP5-2Rpk5uUzQ9qzvW-1" vertex="1" connectable="0">
                    <mxGeometry x="549.05" y="330" width="206.31" height="78.25" as="geometry"/>
                </mxCell>
                <mxCell id="2480" value="&lt;font color=&quot;#000000&quot;&gt;&lt;br&gt;&lt;/font&gt;" style="shape=callout;whiteSpace=wrap;html=1;perimeter=calloutPerimeter;fontSize=11;fillColor=#dae8fc;strokeColor=#6c8ebf;base=13;position2=0.47;size=30;position=0.47;align=left;" parent="2479" vertex="1">
                    <mxGeometry y="1.908536585365853" width="195.9945" height="76.34146341463413" as="geometry"/>
                </mxCell>
                <mxCell id="2481" value="DELETE文：ROADMAP_ID=currentRoadmapのレコードを削除" style="text;strokeColor=none;align=left;fillColor=none;html=1;verticalAlign=middle;whiteSpace=wrap;rounded=0;labelBackgroundColor=none;fontSize=10;fontColor=#000000;" parent="2479" vertex="1">
                    <mxGeometry y="0.8500000000000001" width="192.55599999999998" height="50.89" as="geometry"/>
                </mxCell>
                <mxCell id="2484" value="&lt;span style=&quot;font-size: 11px;&quot;&gt;処理件数&lt;/span&gt;" style="text;strokeColor=none;align=left;fillColor=none;html=1;verticalAlign=middle;whiteSpace=wrap;rounded=0;labelBackgroundColor=none;fontSize=10;" parent="fxQP5-2Rpk5uUzQ9qzvW-1" vertex="1">
                    <mxGeometry x="410.24" y="435" width="56.5" height="20" as="geometry"/>
                </mxCell>
                <mxCell id="2485" value="" style="group" parent="fxQP5-2Rpk5uUzQ9qzvW-1" vertex="1" connectable="0">
                    <mxGeometry x="559.05" y="460" width="170" height="68.25" as="geometry"/>
                </mxCell>
                <mxCell id="2486" value="&lt;font color=&quot;#000000&quot;&gt;&lt;br&gt;&lt;/font&gt;" style="shape=callout;whiteSpace=wrap;html=1;perimeter=calloutPerimeter;fontSize=11;fillColor=#dae8fc;strokeColor=#6c8ebf;base=13;position2=0.47;size=30;position=0.47;align=left;" parent="2485" vertex="1">
                    <mxGeometry y="-10" width="161.5" height="78.25" as="geometry"/>
                </mxCell>
                <mxCell id="2487" value="UPDATE文：ROADMAP_IDがcurrentRoadmap以上のレコードに関して、該当するROADMAP_IDを-1" style="text;strokeColor=none;align=left;fillColor=none;html=1;verticalAlign=middle;whiteSpace=wrap;rounded=0;labelBackgroundColor=none;fontSize=10;fontColor=#000000;" parent="2485" vertex="1">
                    <mxGeometry y="-8.258626198083068" width="158.66666666666663" height="44.386485623003196" as="geometry"/>
                </mxCell>
                <mxCell id="2488" value="&lt;span style=&quot;color: rgb(255, 255, 255);&quot;&gt;RoadmapId&lt;/span&gt;" style="text;strokeColor=none;align=left;fillColor=none;html=1;verticalAlign=middle;whiteSpace=wrap;rounded=0;labelBackgroundColor=none;fontSize=10;" parent="fxQP5-2Rpk5uUzQ9qzvW-1" vertex="1">
                    <mxGeometry x="406.09" y="388.25" width="89.92" height="20" as="geometry"/>
                </mxCell>
                <mxCell id="2489" value="" style="group" parent="fxQP5-2Rpk5uUzQ9qzvW-1" vertex="1" connectable="0">
                    <mxGeometry x="520" y="510" width="148.8" height="40" as="geometry"/>
                </mxCell>
                <mxCell id="2490" value="ParentElementsDAO&lt;br&gt;updateAfterDeleteBy&lt;span style=&quot;text-align: left;&quot;&gt;RoadmapId&lt;/span&gt;()" style="rounded=0;whiteSpace=wrap;html=1;labelBackgroundColor=none;fillStyle=auto;strokeColor=#6F0000;fontFamily=Helvetica;fontSize=10;fontColor=#ffffff;fillColor=#a20025;container=0;" parent="2489" vertex="1">
                    <mxGeometry y="20" width="148.80000000000004" height="25" as="geometry"/>
                </mxCell>
                <mxCell id="2491" value="&lt;span style=&quot;font-size: 11px;&quot;&gt;DAO&lt;/span&gt;" style="text;strokeColor=none;align=left;fillColor=none;html=1;verticalAlign=middle;whiteSpace=wrap;rounded=0;labelBackgroundColor=none;fontSize=10;" parent="2489" vertex="1">
                    <mxGeometry x="43.18321678321683" width="62.43356643356645" height="20" as="geometry"/>
                </mxCell>
                <mxCell id="2492" style="edgeStyle=none;html=1;entryX=0;entryY=0.25;entryDx=0;entryDy=0;rounded=0;jumpStyle=line;jumpSize=10;" parent="fxQP5-2Rpk5uUzQ9qzvW-1" target="2490" edge="1">
                    <mxGeometry relative="1" as="geometry">
                        <mxPoint x="569.0500000000002" y="540.25" as="targetPoint"/>
                        <mxPoint x="360" y="414" as="sourcePoint"/>
                        <Array as="points">
                            <mxPoint x="360" y="536"/>
                        </Array>
                    </mxGeometry>
                </mxCell>
                <mxCell id="2493" style="edgeStyle=none;html=1;exitX=0;exitY=0.75;exitDx=0;exitDy=0;rounded=0;" parent="fxQP5-2Rpk5uUzQ9qzvW-1" source="2490" edge="1">
                    <mxGeometry relative="1" as="geometry">
                        <mxPoint x="566.0500000000002" y="548.75" as="sourcePoint"/>
                        <mxPoint x="307" y="430" as="targetPoint"/>
                        <Array as="points">
                            <mxPoint x="307" y="550"/>
                        </Array>
                    </mxGeometry>
                </mxCell>
                <mxCell id="2494" value="" style="endArrow=classic;startArrow=classic;html=1;rounded=0;fontSize=10;jumpStyle=line;jumpSize=10;strokeWidth=3;exitX=1;exitY=0.5;exitDx=0;exitDy=0;entryX=0;entryY=0;entryDx=0;entryDy=52.5;entryPerimeter=0;" parent="fxQP5-2Rpk5uUzQ9qzvW-1" source="2490" target="2473" edge="1">
                    <mxGeometry width="50" height="50" relative="1" as="geometry">
                        <mxPoint x="678.8" y="432.5" as="sourcePoint"/>
                        <mxPoint x="769.3" y="472.5" as="targetPoint"/>
                    </mxGeometry>
                </mxCell>
                <mxCell id="2495" value="&lt;span style=&quot;color: rgb(255, 255, 255);&quot;&gt;RoadmapId&lt;/span&gt;" style="text;strokeColor=none;align=left;fillColor=none;html=1;verticalAlign=middle;whiteSpace=wrap;rounded=0;labelBackgroundColor=none;fontSize=10;" parent="fxQP5-2Rpk5uUzQ9qzvW-1" vertex="1">
                    <mxGeometry x="401.74999999999994" y="510" width="89.92" height="20" as="geometry"/>
                </mxCell>
                <mxCell id="2496" value="&lt;span style=&quot;font-size: 11px;&quot;&gt;処理件数&lt;/span&gt;" style="text;strokeColor=none;align=left;fillColor=none;html=1;verticalAlign=middle;whiteSpace=wrap;rounded=0;labelBackgroundColor=none;fontSize=10;" parent="fxQP5-2Rpk5uUzQ9qzvW-1" vertex="1">
                    <mxGeometry x="408.46000000000004" y="550" width="56.5" height="20" as="geometry"/>
                </mxCell>
                <mxCell id="2497" value="" style="group" parent="fxQP5-2Rpk5uUzQ9qzvW-1" vertex="1" connectable="0">
                    <mxGeometry x="752.8" y="660" width="73" height="111.75" as="geometry"/>
                </mxCell>
                <mxCell id="2498" value="" style="shape=cylinder3;whiteSpace=wrap;html=1;boundedLbl=1;backgroundOutline=1;size=15;fontSize=11;fillColor=#f5f5f5;fontColor=#333333;strokeColor=#666666;" parent="2497" vertex="1">
                    <mxGeometry x="6.5" y="5" width="60" height="80" as="geometry"/>
                </mxCell>
                <mxCell id="2499" value="&lt;span style=&quot;font-size: 11px;&quot;&gt;CHILD_ELEMENTS&lt;br&gt;テーブル&lt;br&gt;&lt;/span&gt;" style="text;strokeColor=none;align=center;fillColor=none;html=1;verticalAlign=middle;whiteSpace=wrap;rounded=0;labelBackgroundColor=none;fontSize=10;" parent="2497" vertex="1">
                    <mxGeometry y="87.75" width="73" height="20" as="geometry"/>
                </mxCell>
                <mxCell id="2500" value="" style="group" parent="fxQP5-2Rpk5uUzQ9qzvW-1" vertex="1" connectable="0">
                    <mxGeometry x="569.05" y="620" width="99.75" height="40" as="geometry"/>
                </mxCell>
                <mxCell id="2501" value="ChildElementsDAO&lt;br&gt;deleteBy&lt;span style=&quot;text-align: left;&quot;&gt;RoadmapId&lt;/span&gt;()" style="rounded=0;whiteSpace=wrap;html=1;labelBackgroundColor=none;fillStyle=auto;strokeColor=#6F0000;fontFamily=Helvetica;fontSize=10;fontColor=#ffffff;fillColor=#a20025;container=0;" parent="2500" vertex="1">
                    <mxGeometry y="20" width="99.75000000000003" height="25" as="geometry"/>
                </mxCell>
                <mxCell id="2502" value="&lt;span style=&quot;font-size: 11px;&quot;&gt;DAO&lt;/span&gt;" style="text;strokeColor=none;align=left;fillColor=none;html=1;verticalAlign=middle;whiteSpace=wrap;rounded=0;labelBackgroundColor=none;fontSize=10;" parent="2500" vertex="1">
                    <mxGeometry x="28.9484265734266" width="41.85314685314686" height="20" as="geometry"/>
                </mxCell>
                <mxCell id="2503" value="" style="endArrow=classic;startArrow=classic;html=1;rounded=0;fontSize=10;jumpStyle=line;jumpSize=10;strokeWidth=3;exitX=1;exitY=0.5;exitDx=0;exitDy=0;entryX=0;entryY=0;entryDx=0;entryDy=27.5;entryPerimeter=0;" parent="fxQP5-2Rpk5uUzQ9qzvW-1" source="2501" target="2498" edge="1">
                    <mxGeometry width="50" height="50" relative="1" as="geometry">
                        <mxPoint x="732.9900000000005" y="653" as="sourcePoint"/>
                        <mxPoint x="759.3" y="652" as="targetPoint"/>
                    </mxGeometry>
                </mxCell>
                <mxCell id="2504" value="" style="group" parent="fxQP5-2Rpk5uUzQ9qzvW-1" vertex="1" connectable="0">
                    <mxGeometry x="549.05" y="560" width="206.31" height="78.25" as="geometry"/>
                </mxCell>
                <mxCell id="2505" value="&lt;font color=&quot;#000000&quot;&gt;&lt;br&gt;&lt;/font&gt;" style="shape=callout;whiteSpace=wrap;html=1;perimeter=calloutPerimeter;fontSize=11;fillColor=#dae8fc;strokeColor=#6c8ebf;base=13;position2=0.47;size=30;position=0.47;align=left;" parent="2504" vertex="1">
                    <mxGeometry y="1.908536585365853" width="195.9945" height="76.34146341463413" as="geometry"/>
                </mxCell>
                <mxCell id="2506" value="DELETE文：ROADMAP_ID=currentRoadmapのレコードを削除" style="text;strokeColor=none;align=left;fillColor=none;html=1;verticalAlign=middle;whiteSpace=wrap;rounded=0;labelBackgroundColor=none;fontSize=10;fontColor=#000000;" parent="2504" vertex="1">
                    <mxGeometry y="0.8500000000000001" width="192.55599999999998" height="50.89" as="geometry"/>
                </mxCell>
                <mxCell id="2507" style="edgeStyle=none;html=1;entryX=0;entryY=0.25;entryDx=0;entryDy=0;rounded=0;jumpStyle=line;jumpSize=10;" parent="fxQP5-2Rpk5uUzQ9qzvW-1" target="2501" edge="1">
                    <mxGeometry relative="1" as="geometry">
                        <Array as="points">
                            <mxPoint x="360" y="646"/>
                        </Array>
                        <mxPoint x="360" y="530" as="sourcePoint"/>
                    </mxGeometry>
                </mxCell>
                <mxCell id="2508" style="edgeStyle=none;rounded=0;html=1;exitX=0;exitY=0.75;exitDx=0;exitDy=0;" parent="fxQP5-2Rpk5uUzQ9qzvW-1" source="2501" edge="1">
                    <mxGeometry relative="1" as="geometry">
                        <Array as="points">
                            <mxPoint x="307" y="660"/>
                        </Array>
                        <mxPoint x="563.0500000000002" y="658.75" as="sourcePoint"/>
                        <mxPoint x="307" y="550" as="targetPoint"/>
                    </mxGeometry>
                </mxCell>
                <mxCell id="2509" value="&lt;span style=&quot;font-size: 11px;&quot;&gt;処理件数&lt;/span&gt;" style="text;strokeColor=none;align=left;fillColor=none;html=1;verticalAlign=middle;whiteSpace=wrap;rounded=0;labelBackgroundColor=none;fontSize=10;" parent="fxQP5-2Rpk5uUzQ9qzvW-1" vertex="1">
                    <mxGeometry x="410.24" y="665" width="56.5" height="20" as="geometry"/>
                </mxCell>
                <mxCell id="2510" value="" style="group" parent="fxQP5-2Rpk5uUzQ9qzvW-1" vertex="1" connectable="0">
                    <mxGeometry x="559.05" y="690" width="170" height="68.25" as="geometry"/>
                </mxCell>
                <mxCell id="2511" value="&lt;font color=&quot;#000000&quot;&gt;&lt;br&gt;&lt;/font&gt;" style="shape=callout;whiteSpace=wrap;html=1;perimeter=calloutPerimeter;fontSize=11;fillColor=#dae8fc;strokeColor=#6c8ebf;base=13;position2=0.47;size=30;position=0.47;align=left;" parent="2510" vertex="1">
                    <mxGeometry y="-10" width="161.5" height="78.25" as="geometry"/>
                </mxCell>
                <mxCell id="2512" value="UPDATE文：ROADMAP_IDがcurrentRoadmap以上のレコードに関して、該当するROADMAP_IDを-1" style="text;strokeColor=none;align=left;fillColor=none;html=1;verticalAlign=middle;whiteSpace=wrap;rounded=0;labelBackgroundColor=none;fontSize=10;fontColor=#000000;" parent="2510" vertex="1">
                    <mxGeometry y="-8.258626198083068" width="158.66666666666663" height="44.386485623003196" as="geometry"/>
                </mxCell>
                <mxCell id="2513" value="&lt;span style=&quot;color: rgb(255, 255, 255);&quot;&gt;RoadmapId&lt;/span&gt;" style="text;strokeColor=none;align=left;fillColor=none;html=1;verticalAlign=middle;whiteSpace=wrap;rounded=0;labelBackgroundColor=none;fontSize=10;" parent="fxQP5-2Rpk5uUzQ9qzvW-1" vertex="1">
                    <mxGeometry x="411.18999999999994" y="620" width="89.92" height="20" as="geometry"/>
                </mxCell>
                <mxCell id="2514" value="" style="group" parent="fxQP5-2Rpk5uUzQ9qzvW-1" vertex="1" connectable="0">
                    <mxGeometry x="520" y="740" width="148.8" height="40" as="geometry"/>
                </mxCell>
                <mxCell id="2515" value="ChildElementsDAO&lt;br&gt;updateAfterDeleteBy&lt;span style=&quot;text-align: left;&quot;&gt;RoadmapId&lt;/span&gt;()" style="rounded=0;whiteSpace=wrap;html=1;labelBackgroundColor=none;fillStyle=auto;strokeColor=#6F0000;fontFamily=Helvetica;fontSize=10;fontColor=#ffffff;fillColor=#a20025;container=0;" parent="2514" vertex="1">
                    <mxGeometry y="20" width="148.80000000000004" height="25" as="geometry"/>
                </mxCell>
                <mxCell id="2516" value="&lt;span style=&quot;font-size: 11px;&quot;&gt;DAO&lt;/span&gt;" style="text;strokeColor=none;align=left;fillColor=none;html=1;verticalAlign=middle;whiteSpace=wrap;rounded=0;labelBackgroundColor=none;fontSize=10;" parent="2514" vertex="1">
                    <mxGeometry x="43.18321678321682" width="62.43356643356644" height="20" as="geometry"/>
                </mxCell>
                <mxCell id="2517" style="edgeStyle=none;html=1;entryX=0;entryY=0.25;entryDx=0;entryDy=0;rounded=0;jumpStyle=line;jumpSize=10;" parent="fxQP5-2Rpk5uUzQ9qzvW-1" target="2515" edge="1">
                    <mxGeometry relative="1" as="geometry">
                        <mxPoint x="569.0500000000002" y="761.25" as="targetPoint"/>
                        <mxPoint x="360" y="645" as="sourcePoint"/>
                        <Array as="points">
                            <mxPoint x="360" y="766"/>
                        </Array>
                    </mxGeometry>
                </mxCell>
                <mxCell id="2518" style="edgeStyle=none;html=1;exitX=0;exitY=0.75;exitDx=0;exitDy=0;rounded=0;" parent="fxQP5-2Rpk5uUzQ9qzvW-1" source="2515" edge="1">
                    <mxGeometry relative="1" as="geometry">
                        <mxPoint x="566.0500000000002" y="778.75" as="sourcePoint"/>
                        <mxPoint x="307" y="660" as="targetPoint"/>
                        <Array as="points">
                            <mxPoint x="307" y="779"/>
                        </Array>
                    </mxGeometry>
                </mxCell>
                <mxCell id="2519" value="" style="endArrow=classic;startArrow=classic;html=1;rounded=0;fontSize=10;jumpStyle=line;jumpSize=10;strokeWidth=3;exitX=1;exitY=0.5;exitDx=0;exitDy=0;entryX=0;entryY=0;entryDx=0;entryDy=52.5;entryPerimeter=0;" parent="fxQP5-2Rpk5uUzQ9qzvW-1" source="2515" target="2498" edge="1">
                    <mxGeometry width="50" height="50" relative="1" as="geometry">
                        <mxPoint x="678.8" y="662.5" as="sourcePoint"/>
                        <mxPoint x="769.3" y="702.5" as="targetPoint"/>
                    </mxGeometry>
                </mxCell>
                <mxCell id="2520" value="&lt;span style=&quot;color: rgb(255, 255, 255);&quot;&gt;RoadmapId&lt;/span&gt;" style="text;strokeColor=none;align=left;fillColor=none;html=1;verticalAlign=middle;whiteSpace=wrap;rounded=0;labelBackgroundColor=none;fontSize=10;" parent="fxQP5-2Rpk5uUzQ9qzvW-1" vertex="1">
                    <mxGeometry x="406.09" y="742" width="89.92" height="20" as="geometry"/>
                </mxCell>
                <mxCell id="2521" value="&lt;span style=&quot;font-size: 11px;&quot;&gt;処理件数&lt;/span&gt;" style="text;strokeColor=none;align=left;fillColor=none;html=1;verticalAlign=middle;whiteSpace=wrap;rounded=0;labelBackgroundColor=none;fontSize=10;" parent="fxQP5-2Rpk5uUzQ9qzvW-1" vertex="1">
                    <mxGeometry x="403.75" y="783" width="56.5" height="20" as="geometry"/>
                </mxCell>
                <mxCell id="2522" style="edgeStyle=none;rounded=0;html=1;entryX=0;entryY=0.25;entryDx=0;entryDy=0;exitX=0.75;exitY=1;exitDx=0;exitDy=0;" parent="fxQP5-2Rpk5uUzQ9qzvW-1" source="2017" target="2476" edge="1">
                    <mxGeometry relative="1" as="geometry">
                        <mxPoint x="361" y="310" as="sourcePoint"/>
                        <Array as="points">
                            <mxPoint x="360" y="416"/>
                        </Array>
                    </mxGeometry>
                </mxCell>
                <mxCell id="2524" value="" style="group" parent="fxQP5-2Rpk5uUzQ9qzvW-1" vertex="1" connectable="0">
                    <mxGeometry x="66.52499999999998" y="335" width="203.67000000000002" height="137.79" as="geometry"/>
                </mxCell>
                <mxCell id="2525" value="&lt;font color=&quot;#000000&quot;&gt;&lt;br&gt;&lt;/font&gt;" style="shape=callout;whiteSpace=wrap;html=1;perimeter=calloutPerimeter;fontSize=11;fillColor=#dae8fc;strokeColor=#6c8ebf;base=19;position2=0.47;size=30;position=0.47;align=left;rotation=90;" parent="2524" vertex="1">
                    <mxGeometry x="67.84" y="-65.88" width="67.97" height="203.67" as="geometry"/>
                </mxCell>
                <mxCell id="2526" value="取得したroadmapListからcurrentRoadmapの位置の要素をremove()で削除、スコープに保存&lt;br&gt;また、スコープからcurrentRoadmapを削除" style="text;strokeColor=none;align=left;fillColor=none;html=1;verticalAlign=middle;whiteSpace=wrap;rounded=0;labelBackgroundColor=none;fontSize=10;fontColor=#000000;" parent="2524" vertex="1">
                    <mxGeometry x="35.8" width="167.68" height="70" as="geometry"/>
                </mxCell>
                <mxCell id="2769" value="" style="group" parent="fxQP5-2Rpk5uUzQ9qzvW-1" vertex="1" connectable="0">
                    <mxGeometry x="80" y="431" width="80" height="45" as="geometry"/>
                </mxCell>
                <mxCell id="2770" value="&lt;span style=&quot;color: rgb(255, 255, 255);&quot;&gt;MypageServlet&lt;/span&gt;&lt;font color=&quot;#ffffff&quot;&gt;&lt;br&gt;doGet()&lt;br&gt;&lt;/font&gt;" style="rounded=0;whiteSpace=wrap;html=1;labelBackgroundColor=none;fillStyle=auto;strokeColor=#F0F0F0;fontFamily=Helvetica;fontSize=10;fontColor=#007FFF;fillColor=#0066CC;" parent="2769" vertex="1">
                    <mxGeometry y="20" width="80" height="25" as="geometry"/>
                </mxCell>
                <mxCell id="2771" value="&lt;span style=&quot;font-size: 11px;&quot;&gt;Servlet&lt;/span&gt;" style="text;strokeColor=none;align=left;fillColor=none;html=1;verticalAlign=middle;whiteSpace=wrap;rounded=0;labelBackgroundColor=none;fontSize=10;" parent="2769" vertex="1">
                    <mxGeometry x="17" width="46" height="20" as="geometry"/>
                </mxCell>
                <mxCell id="2772" style="edgeStyle=none;rounded=0;jumpStyle=line;jumpSize=10;html=1;exitX=0.5;exitY=1;exitDx=0;exitDy=0;entryX=1;entryY=0.5;entryDx=0;entryDy=0;" parent="fxQP5-2Rpk5uUzQ9qzvW-1" source="2770" target="2005" edge="1">
                    <mxGeometry relative="1" as="geometry">
                        <Array as="points">
                            <mxPoint x="120" y="630"/>
                        </Array>
                    </mxGeometry>
                </mxCell>
                <mxCell id="2773" value="フォワード" style="text;strokeColor=default;align=center;fillColor=none;html=1;verticalAlign=middle;whiteSpace=wrap;rounded=0;labelBackgroundColor=none;fontSize=10;" parent="fxQP5-2Rpk5uUzQ9qzvW-1" vertex="1">
                    <mxGeometry x="54.5" y="484.63" width="59" height="15" as="geometry"/>
                </mxCell>
                <mxCell id="2789" style="edgeStyle=none;html=1;entryX=0;entryY=0.5;entryDx=0;entryDy=0;fontSize=10;fillColor=none;" parent="fxQP5-2Rpk5uUzQ9qzvW-1" target="2794" edge="1">
                    <mxGeometry relative="1" as="geometry">
                        <mxPoint x="-202" y="933" as="sourcePoint"/>
                        <mxPoint x="-108" y="940" as="targetPoint"/>
                    </mxGeometry>
                </mxCell>
                <mxCell id="2790" style="edgeStyle=none;rounded=0;html=1;exitX=0;exitY=0.5;exitDx=0;exitDy=0;fontSize=11;fontColor=#000000;" parent="fxQP5-2Rpk5uUzQ9qzvW-1" source="2799" edge="1">
                    <mxGeometry relative="1" as="geometry">
                        <mxPoint x="-202" y="1390" as="targetPoint"/>
                    </mxGeometry>
                </mxCell>
                <mxCell id="2791" style="edgeStyle=none;rounded=0;html=1;exitX=0.75;exitY=1;exitDx=0;exitDy=0;entryX=0;entryY=0.5;entryDx=0;entryDy=0;fontSize=11;fontColor=#000000;fillColor=none;" parent="fxQP5-2Rpk5uUzQ9qzvW-1" source="2794" target="2896" edge="1">
                    <mxGeometry relative="1" as="geometry">
                        <Array as="points">
                            <mxPoint x="58" y="1223"/>
                        </Array>
                        <mxPoint x="81.25" y="1182.5" as="targetPoint"/>
                    </mxGeometry>
                </mxCell>
                <mxCell id="2792" value="フォワード" style="text;strokeColor=default;align=center;fillColor=none;html=1;verticalAlign=middle;whiteSpace=wrap;rounded=0;labelBackgroundColor=none;fontSize=10;" parent="fxQP5-2Rpk5uUzQ9qzvW-1" vertex="1">
                    <mxGeometry x="66.63" y="955" width="59" height="15" as="geometry"/>
                </mxCell>
                <mxCell id="2793" value="" style="group" parent="fxQP5-2Rpk5uUzQ9qzvW-1" vertex="1" connectable="0">
                    <mxGeometry x="-2" y="900" width="80" height="45" as="geometry"/>
                </mxCell>
                <mxCell id="2794" value="&lt;span style=&quot;color: rgb(255, 255, 255);&quot;&gt;RoadmapServlet&lt;/span&gt;&lt;font color=&quot;#ffffff&quot;&gt;&lt;br&gt;doPost()&lt;br&gt;&lt;/font&gt;" style="rounded=0;whiteSpace=wrap;html=1;labelBackgroundColor=none;fillStyle=auto;strokeColor=#F0F0F0;fontFamily=Helvetica;fontSize=10;fontColor=#007FFF;fillColor=#0066CC;" parent="2793" vertex="1">
                    <mxGeometry y="20" width="80" height="25" as="geometry"/>
                </mxCell>
                <mxCell id="2795" value="&lt;span style=&quot;font-size: 11px;&quot;&gt;Servlet&lt;/span&gt;" style="text;strokeColor=none;align=left;fillColor=none;html=1;verticalAlign=middle;whiteSpace=wrap;rounded=0;labelBackgroundColor=none;fontSize=10;" parent="2793" vertex="1">
                    <mxGeometry x="17" width="46" height="20" as="geometry"/>
                </mxCell>
                <mxCell id="2796" value="&lt;span style=&quot;font-size: 11px;&quot;&gt;保存(roadmapList)&lt;br&gt;削除(currentRoadmap)&lt;br&gt;&lt;/span&gt;" style="text;strokeColor=none;align=left;fillColor=none;html=1;verticalAlign=middle;whiteSpace=wrap;rounded=0;labelBackgroundColor=none;fontSize=10;" parent="fxQP5-2Rpk5uUzQ9qzvW-1" vertex="1">
                    <mxGeometry x="-82" y="1163.25" width="120" height="30" as="geometry"/>
                </mxCell>
                <mxCell id="2797" value="" style="endArrow=async;html=1;rounded=0;shadow=1;labelBackgroundColor=default;strokeColor=#82b366;fontFamily=Helvetica;fontSize=10;fontColor=#FFFFFF;shape=connector;strokeWidth=1;startArrow=none;startFill=0;fillColor=#d5e8d4;jumpStyle=line;jumpSize=10;entryX=0.75;entryY=1;entryDx=0;entryDy=0;dashed=1;endFill=1;" parent="fxQP5-2Rpk5uUzQ9qzvW-1" target="2803" edge="1">
                    <mxGeometry width="50" height="50" relative="1" as="geometry">
                        <mxPoint x="56" y="1200" as="sourcePoint"/>
                        <mxPoint x="129.75" y="1070.875" as="targetPoint"/>
                        <Array as="points">
                            <mxPoint x="-90" y="1200"/>
                        </Array>
                    </mxGeometry>
                </mxCell>
                <mxCell id="2798" value="" style="group" parent="fxQP5-2Rpk5uUzQ9qzvW-1" vertex="1" connectable="0">
                    <mxGeometry x="38" y="1362.5" width="80" height="35" as="geometry"/>
                </mxCell>
                <mxCell id="2799" value="&lt;span style=&quot;color: rgb(255, 255, 255);&quot;&gt;roadmap.jsp&lt;/span&gt;" style="rounded=0;whiteSpace=wrap;html=1;labelBackgroundColor=none;fillStyle=auto;strokeColor=#F0F0F0;fontFamily=Helvetica;fontSize=10;fontColor=#007FFF;fillColor=#4D9900;" parent="2798" vertex="1">
                    <mxGeometry x="-40" y="20" width="80" height="15" as="geometry"/>
                </mxCell>
                <mxCell id="2800" value="&lt;span style=&quot;font-size: 11px;&quot;&gt;JSP&lt;/span&gt;" style="text;strokeColor=none;align=left;fillColor=none;html=1;verticalAlign=middle;whiteSpace=wrap;rounded=0;labelBackgroundColor=none;fontSize=10;" parent="2798" vertex="1">
                    <mxGeometry x="-15" width="30" height="20" as="geometry"/>
                </mxCell>
                <mxCell id="2801" value="action=copy&lt;br&gt;roadmapName" style="text;strokeColor=#990000;align=center;fillColor=none;html=1;verticalAlign=middle;whiteSpace=wrap;rounded=0;labelBackgroundColor=none;fontSize=10;dashed=1;strokeWidth=2;perimeterSpacing=0;dashPattern=1 1;glass=1;" parent="fxQP5-2Rpk5uUzQ9qzvW-1" vertex="1">
                    <mxGeometry x="-182" y="940" width="70" height="22.37" as="geometry"/>
                </mxCell>
                <mxCell id="2802" value="POST" style="text;strokeColor=default;align=center;fillColor=none;html=1;verticalAlign=middle;whiteSpace=wrap;rounded=0;labelBackgroundColor=none;fontSize=10;" parent="fxQP5-2Rpk5uUzQ9qzvW-1" vertex="1">
                    <mxGeometry x="-162" y="913.4999999999999" width="30" height="15" as="geometry"/>
                </mxCell>
                <mxCell id="2803" value="&lt;font color=&quot;#ffffff&quot;&gt;S：&lt;br&gt;&lt;/font&gt;&lt;span style=&quot;color: rgb(255, 255, 255);&quot;&gt;&quot;currentRoadmapId&quot; 表示中のRoadmapIdインスタンス&lt;/span&gt;&lt;span style=&quot;color: rgb(255, 255, 255);&quot;&gt;&lt;br&gt;&lt;/span&gt;&lt;span style=&quot;color: rgb(255, 255, 255);&quot;&gt;&quot;roadmapList&quot; Roadmapインスタンスのリスト&lt;/span&gt;&lt;span style=&quot;color: rgb(255, 255, 255);&quot;&gt;&lt;br&gt;&lt;/span&gt;" style="rounded=0;whiteSpace=wrap;html=1;labelBackgroundColor=none;fillStyle=auto;strokeColor=#F0F0F0;fontFamily=Helvetica;fontSize=10;fontColor=#007FFF;fillColor=#999900;align=left;" parent="fxQP5-2Rpk5uUzQ9qzvW-1" vertex="1">
                    <mxGeometry x="-280" y="1035" width="253.5" height="35" as="geometry"/>
                </mxCell>
                <mxCell id="2804" value="" style="endArrow=async;html=1;rounded=0;shadow=1;labelBackgroundColor=default;strokeColor=#82b366;fontFamily=Helvetica;fontSize=10;fontColor=#FFFFFF;shape=connector;strokeWidth=1;startArrow=none;startFill=0;fillColor=#d5e8d4;jumpStyle=line;jumpSize=10;entryX=0.5;entryY=1;entryDx=0;entryDy=0;dashed=1;endFill=1;exitX=1;exitY=0.5;exitDx=0;exitDy=0;" parent="fxQP5-2Rpk5uUzQ9qzvW-1" source="2803" target="2794" edge="1">
                    <mxGeometry width="50" height="50" relative="1" as="geometry">
                        <mxPoint x="108" y="980" as="sourcePoint"/>
                        <mxPoint x="170" y="980.875" as="targetPoint"/>
                        <Array as="points">
                            <mxPoint x="38" y="1053"/>
                        </Array>
                    </mxGeometry>
                </mxCell>
                <mxCell id="2805" value="取得" style="text;strokeColor=none;align=left;fillColor=none;html=1;verticalAlign=middle;whiteSpace=wrap;rounded=0;labelBackgroundColor=none;fontSize=10;" parent="fxQP5-2Rpk5uUzQ9qzvW-1" vertex="1">
                    <mxGeometry x="-2" y="995" width="35" height="30" as="geometry"/>
                </mxCell>
                <mxCell id="2806" value="" style="group" parent="fxQP5-2Rpk5uUzQ9qzvW-1" vertex="1" connectable="0">
                    <mxGeometry x="277" y="1064" width="107.93" height="40" as="geometry"/>
                </mxCell>
                <mxCell id="2807" value="&lt;span style=&quot;font-size: 11px;&quot;&gt;BO&lt;/span&gt;" style="text;strokeColor=none;align=left;fillColor=none;html=1;verticalAlign=middle;whiteSpace=wrap;rounded=0;labelBackgroundColor=none;fontSize=10;" parent="2806" vertex="1">
                    <mxGeometry x="34.66476310399712" width="38.6082606071787" height="20" as="geometry"/>
                </mxCell>
                <mxCell id="2808" value="&lt;span style=&quot;text-align: start;&quot;&gt;&lt;font face=&quot;monospace&quot; color=&quot;rgba(0, 0, 0, 0)&quot;&gt;&lt;span style=&quot;font-size: 0px;&quot;&gt;%3CmxGraphModel%3E%3Croot%3E%3CmxCell%20id%3D%220%22%2F%3E%3CmxCell%20id%3D%221%22%20parent%3D%220%22%2F%3E%3CmxCell%20id%3D%222%22%20value%3D%22%26lt%3Bfont%20color%3D%26quot%3B%23ffffff%26quot%3B%26gt%3BS%EF%BC%9A%26lt%3Bbr%26gt%3B%26lt%3B%2Ffont%26gt%3B%26lt%3Bspan%20style%3D%26quot%3Bcolor%3A%20rgb(255%2C%20255%2C%20255)%3B%26quot%3B%26gt%3B%26quot%3BuserId%26quot%3B%20%E3%83%A6%E3%83%BC%E3%82%B6%E3%83%BCID%26lt%3Bbr%26gt%3B%26lt%3B%2Fspan%26gt%3B%22%20style%3D%22rounded%3D0%3BwhiteSpace%3Dwrap%3Bhtml%3D1%3BlabelBackgroundColor%3Dnone%3BfillStyle%3Dauto%3BstrokeColor%3D%23F0F0F0%3BfontFamily%3DHelvetica%3BfontSize%3D10%3BfontColor%3D%23007FFF%3BfillColor%3D%23999900%3Balign%3Dleft%3B%22%20vertex%3D%221%22%20parent%3D%221%22%3E%3CmxGeometry%20x%3D%22116.5%22%20y%3D%222320%22%20width%3D%22103.5%22%20height%3D%2230%22%20as%3D%22geometry%22%2F%3E%3C%2FmxCell%3E%3C%2Froot%3E%3C%2FmxGraphModel%3Edaaaaaa&lt;/span&gt;&lt;/font&gt;&lt;/span&gt;&lt;span style=&quot;background-color: initial;&quot;&gt;RoadmapLogic&lt;/span&gt;&lt;span style=&quot;text-align: start;&quot;&gt;&lt;font face=&quot;monospace&quot; color=&quot;rgba(0, 0, 0, 0)&quot;&gt;&lt;span style=&quot;font-size: 0px;&quot;&gt;&lt;br&gt;&lt;/span&gt;&lt;/font&gt;&lt;/span&gt;&lt;font color=&quot;#ffffff&quot;&gt;copyRoadmap()&lt;br&gt;&lt;/font&gt;" style="rounded=0;whiteSpace=wrap;html=1;labelBackgroundColor=none;fillStyle=auto;strokeColor=#3700CC;fontFamily=Helvetica;fontSize=10;fontColor=#ffffff;fillColor=#6a00ff;container=0;" parent="2806" vertex="1">
                    <mxGeometry y="20" width="107.92999999999999" height="25" as="geometry"/>
                </mxCell>
                <mxCell id="2809" style="edgeStyle=none;html=1;exitX=0;exitY=0.75;exitDx=0;exitDy=0;" parent="fxQP5-2Rpk5uUzQ9qzvW-1" source="2808" edge="1">
                    <mxGeometry relative="1" as="geometry">
                        <mxPoint x="58" y="1103" as="targetPoint"/>
                        <mxPoint x="277" y="1108.75" as="sourcePoint"/>
                    </mxGeometry>
                </mxCell>
                <mxCell id="2810" style="edgeStyle=none;html=1;entryX=0;entryY=0.25;entryDx=0;entryDy=0;rounded=0;" parent="fxQP5-2Rpk5uUzQ9qzvW-1" target="2808" edge="1">
                    <mxGeometry relative="1" as="geometry">
                        <mxPoint x="277" y="1096.25" as="targetPoint"/>
                        <mxPoint x="58" y="1090" as="sourcePoint"/>
                        <Array as="points"/>
                    </mxGeometry>
                </mxCell>
                <mxCell id="2811" value="" style="group" parent="fxQP5-2Rpk5uUzQ9qzvW-1" vertex="1" connectable="0">
                    <mxGeometry x="741.75" y="1039" width="73" height="111.75" as="geometry"/>
                </mxCell>
                <mxCell id="2812" value="" style="shape=cylinder3;whiteSpace=wrap;html=1;boundedLbl=1;backgroundOutline=1;size=15;fontSize=11;fillColor=#f5f5f5;fontColor=#333333;strokeColor=#666666;" parent="2811" vertex="1">
                    <mxGeometry x="6.5" y="5" width="60" height="80" as="geometry"/>
                </mxCell>
                <mxCell id="2813" value="&lt;span style=&quot;font-size: 11px;&quot;&gt;ROADMAP_IDS&lt;br&gt;テーブル&lt;br&gt;&lt;/span&gt;" style="text;strokeColor=none;align=center;fillColor=none;html=1;verticalAlign=middle;whiteSpace=wrap;rounded=0;labelBackgroundColor=none;fontSize=10;" parent="2811" vertex="1">
                    <mxGeometry y="87.75" width="73" height="20" as="geometry"/>
                </mxCell>
                <mxCell id="2814" value="&lt;span style=&quot;color: rgb(255, 255, 255);&quot;&gt;Roadmap&lt;/span&gt;" style="text;strokeColor=none;align=left;fillColor=none;html=1;verticalAlign=middle;whiteSpace=wrap;rounded=0;labelBackgroundColor=none;fontSize=10;" parent="fxQP5-2Rpk5uUzQ9qzvW-1" vertex="1">
                    <mxGeometry x="132" y="1071" width="67" height="20" as="geometry"/>
                </mxCell>
                <mxCell id="2815" value="&lt;span style=&quot;font-size: 11px;&quot;&gt;処理完了：true&lt;br&gt;処理未完了：false&lt;br&gt;&lt;/span&gt;" style="text;strokeColor=none;align=left;fillColor=none;html=1;verticalAlign=middle;whiteSpace=wrap;rounded=0;labelBackgroundColor=none;fontSize=10;" parent="fxQP5-2Rpk5uUzQ9qzvW-1" vertex="1">
                    <mxGeometry x="125" y="1110" width="96.5" height="20" as="geometry"/>
                </mxCell>
                <mxCell id="2816" value="" style="endArrow=async;html=1;rounded=0;shadow=1;labelBackgroundColor=default;strokeColor=#82b366;fontFamily=Helvetica;fontSize=10;fontColor=#FFFFFF;shape=connector;strokeWidth=1;startArrow=none;startFill=0;fillColor=#d5e8d4;jumpStyle=line;jumpSize=10;entryX=0.25;entryY=0;entryDx=0;entryDy=0;dashed=1;endFill=1;exitX=0.5;exitY=1;exitDx=0;exitDy=0;" parent="fxQP5-2Rpk5uUzQ9qzvW-1" source="2803" target="2799" edge="1">
                    <mxGeometry width="50" height="50" relative="1" as="geometry">
                        <mxPoint x="-134" y="1180" as="sourcePoint"/>
                        <mxPoint x="-72" y="1180.875" as="targetPoint"/>
                        <Array as="points">
                            <mxPoint x="-153" y="1240"/>
                            <mxPoint x="18" y="1240"/>
                        </Array>
                    </mxGeometry>
                </mxCell>
                <mxCell id="2817" value="取得&lt;span style=&quot;font-size: 11px;&quot;&gt;(roadmapList)&lt;/span&gt;" style="text;strokeColor=none;align=left;fillColor=none;html=1;verticalAlign=middle;whiteSpace=wrap;rounded=0;labelBackgroundColor=none;fontSize=10;" parent="fxQP5-2Rpk5uUzQ9qzvW-1" vertex="1">
                    <mxGeometry x="-142" y="1209.13" width="30" height="30" as="geometry"/>
                </mxCell>
                <mxCell id="2828" value="" style="group" parent="fxQP5-2Rpk5uUzQ9qzvW-1" vertex="1" connectable="0">
                    <mxGeometry x="548" y="1014" width="170" height="68.25" as="geometry"/>
                </mxCell>
                <mxCell id="2829" value="&lt;font color=&quot;#000000&quot;&gt;&lt;br&gt;&lt;/font&gt;" style="shape=callout;whiteSpace=wrap;html=1;perimeter=calloutPerimeter;fontSize=11;fillColor=#dae8fc;strokeColor=#6c8ebf;base=13;position2=0.47;size=30;position=0.47;align=left;" parent="2828" vertex="1">
                    <mxGeometry y="-10" width="161.5" height="78.25" as="geometry"/>
                </mxCell>
                <mxCell id="2830" value="INSERT文：RoadmapインスタンスのRoadmapIdインスタンスの各フィールドを挿入" style="text;strokeColor=none;align=left;fillColor=none;html=1;verticalAlign=middle;whiteSpace=wrap;rounded=0;labelBackgroundColor=none;fontSize=10;fontColor=#000000;" parent="2828" vertex="1">
                    <mxGeometry y="-8.258626198083068" width="158.66666666666663" height="44.386485623003196" as="geometry"/>
                </mxCell>
                <mxCell id="2835" value="" style="group" parent="fxQP5-2Rpk5uUzQ9qzvW-1" vertex="1" connectable="0">
                    <mxGeometry x="558" y="1064" width="99.75" height="40" as="geometry"/>
                </mxCell>
                <mxCell id="2836" value="RoadmapIdsDAO&lt;br&gt;insert()" style="rounded=0;whiteSpace=wrap;html=1;labelBackgroundColor=none;fillStyle=auto;strokeColor=#6F0000;fontFamily=Helvetica;fontSize=10;fontColor=#ffffff;fillColor=#a20025;container=0;" parent="2835" vertex="1">
                    <mxGeometry y="20" width="99.75000000000003" height="25" as="geometry"/>
                </mxCell>
                <mxCell id="2837" value="&lt;span style=&quot;font-size: 11px;&quot;&gt;DAO&lt;/span&gt;" style="text;strokeColor=none;align=left;fillColor=none;html=1;verticalAlign=middle;whiteSpace=wrap;rounded=0;labelBackgroundColor=none;fontSize=10;" parent="2835" vertex="1">
                    <mxGeometry x="28.9484265734266" width="41.85314685314686" height="20" as="geometry"/>
                </mxCell>
                <mxCell id="2838" style="edgeStyle=none;html=1;exitX=1;exitY=0.25;exitDx=0;exitDy=0;entryX=0;entryY=0.25;entryDx=0;entryDy=0;" parent="fxQP5-2Rpk5uUzQ9qzvW-1" source="2808" target="2836" edge="1">
                    <mxGeometry relative="1" as="geometry">
                        <mxPoint x="488" y="1090.5" as="targetPoint"/>
                    </mxGeometry>
                </mxCell>
                <mxCell id="2839" style="edgeStyle=none;html=1;exitX=0;exitY=0.75;exitDx=0;exitDy=0;entryX=1;entryY=0.75;entryDx=0;entryDy=0;" parent="fxQP5-2Rpk5uUzQ9qzvW-1" source="2836" target="2808" edge="1">
                    <mxGeometry relative="1" as="geometry"/>
                </mxCell>
                <mxCell id="2840" value="" style="endArrow=classic;startArrow=classic;html=1;rounded=0;fontSize=10;jumpStyle=line;jumpSize=10;strokeWidth=3;exitX=1;exitY=0.5;exitDx=0;exitDy=0;entryX=0;entryY=0;entryDx=0;entryDy=52.5;entryPerimeter=0;" parent="fxQP5-2Rpk5uUzQ9qzvW-1" source="2836" target="2812" edge="1">
                    <mxGeometry width="50" height="50" relative="1" as="geometry">
                        <mxPoint x="667.75" y="986.5" as="sourcePoint"/>
                        <mxPoint x="758.25" y="1026.5" as="targetPoint"/>
                    </mxGeometry>
                </mxCell>
                <mxCell id="2841" value="&lt;span style=&quot;font-size: 11px;&quot;&gt;RoadmapId&lt;/span&gt;" style="text;strokeColor=none;align=left;fillColor=none;html=1;verticalAlign=middle;whiteSpace=wrap;rounded=0;labelBackgroundColor=none;fontSize=10;" parent="fxQP5-2Rpk5uUzQ9qzvW-1" vertex="1">
                    <mxGeometry x="427.99999999999994" y="1065.87" width="89.92" height="20" as="geometry"/>
                </mxCell>
                <mxCell id="2842" value="&lt;span style=&quot;font-size: 11px;&quot;&gt;処理件数&lt;/span&gt;" style="text;strokeColor=none;align=left;fillColor=none;html=1;verticalAlign=middle;whiteSpace=wrap;rounded=0;labelBackgroundColor=none;fontSize=10;" parent="fxQP5-2Rpk5uUzQ9qzvW-1" vertex="1">
                    <mxGeometry x="434.71000000000004" y="1107" width="56.5" height="20" as="geometry"/>
                </mxCell>
                <mxCell id="2843" value="" style="group" parent="fxQP5-2Rpk5uUzQ9qzvW-1" vertex="1" connectable="0">
                    <mxGeometry x="750.8" y="1158" width="73" height="111.75" as="geometry"/>
                </mxCell>
                <mxCell id="2844" value="" style="shape=cylinder3;whiteSpace=wrap;html=1;boundedLbl=1;backgroundOutline=1;size=15;fontSize=11;fillColor=#f5f5f5;fontColor=#333333;strokeColor=#666666;" parent="2843" vertex="1">
                    <mxGeometry x="6.5" y="5" width="60" height="80" as="geometry"/>
                </mxCell>
                <mxCell id="2845" value="&lt;span style=&quot;font-size: 11px;&quot;&gt;PARENT_ELEMENTS&lt;br&gt;テーブル&lt;br&gt;&lt;/span&gt;" style="text;strokeColor=none;align=center;fillColor=none;html=1;verticalAlign=middle;whiteSpace=wrap;rounded=0;labelBackgroundColor=none;fontSize=10;" parent="2843" vertex="1">
                    <mxGeometry y="87.75" width="73" height="20" as="geometry"/>
                </mxCell>
                <mxCell id="2854" value="" style="group" parent="fxQP5-2Rpk5uUzQ9qzvW-1" vertex="1" connectable="0">
                    <mxGeometry x="557.05" y="1134" width="170" height="68.25" as="geometry"/>
                </mxCell>
                <mxCell id="2855" value="&lt;font color=&quot;#000000&quot;&gt;&lt;br&gt;&lt;/font&gt;" style="shape=callout;whiteSpace=wrap;html=1;perimeter=calloutPerimeter;fontSize=11;fillColor=#dae8fc;strokeColor=#6c8ebf;base=13;position2=0.47;size=30;position=0.47;align=left;" parent="2854" vertex="1">
                    <mxGeometry y="-10" width="161.5" height="78.25" as="geometry"/>
                </mxCell>
                <mxCell id="2856" value="INSERT文：RoadmapインスタンスのParentElementインスタンスの各フィールドを挿入" style="text;strokeColor=none;align=left;fillColor=none;html=1;verticalAlign=middle;whiteSpace=wrap;rounded=0;labelBackgroundColor=none;fontSize=10;fontColor=#000000;" parent="2854" vertex="1">
                    <mxGeometry y="-8.258626198083068" width="158.66666666666663" height="44.386485623003196" as="geometry"/>
                </mxCell>
                <mxCell id="2858" value="" style="group" parent="fxQP5-2Rpk5uUzQ9qzvW-1" vertex="1" connectable="0">
                    <mxGeometry x="567.05" y="1184" width="99.75" height="40" as="geometry"/>
                </mxCell>
                <mxCell id="2859" value="ParentElementsDAO&lt;br&gt;insertByRoadmap()" style="rounded=0;whiteSpace=wrap;html=1;labelBackgroundColor=none;fillStyle=auto;strokeColor=#6F0000;fontFamily=Helvetica;fontSize=10;fontColor=#ffffff;fillColor=#a20025;container=0;" parent="2858" vertex="1">
                    <mxGeometry y="20" width="99.75000000000003" height="25" as="geometry"/>
                </mxCell>
                <mxCell id="2860" value="&lt;span style=&quot;font-size: 11px;&quot;&gt;DAO&lt;/span&gt;" style="text;strokeColor=none;align=left;fillColor=none;html=1;verticalAlign=middle;whiteSpace=wrap;rounded=0;labelBackgroundColor=none;fontSize=10;" parent="2858" vertex="1">
                    <mxGeometry x="28.9484265734266" width="41.85314685314686" height="20" as="geometry"/>
                </mxCell>
                <mxCell id="2861" style="edgeStyle=none;html=1;entryX=0;entryY=0.25;entryDx=0;entryDy=0;rounded=0;jumpStyle=line;jumpSize=10;exitX=0.75;exitY=1;exitDx=0;exitDy=0;" parent="fxQP5-2Rpk5uUzQ9qzvW-1" source="2808" target="2859" edge="1">
                    <mxGeometry relative="1" as="geometry">
                        <mxPoint x="567.0500000000002" y="1344.25" as="targetPoint"/>
                        <mxPoint x="358" y="1218" as="sourcePoint"/>
                        <Array as="points">
                            <mxPoint x="358" y="1210"/>
                        </Array>
                    </mxGeometry>
                </mxCell>
                <mxCell id="2862" style="edgeStyle=none;html=1;exitX=0;exitY=0.75;exitDx=0;exitDy=0;rounded=0;entryX=0.25;entryY=1;entryDx=0;entryDy=0;" parent="fxQP5-2Rpk5uUzQ9qzvW-1" source="2859" target="2808" edge="1">
                    <mxGeometry relative="1" as="geometry">
                        <mxPoint x="564.0500000000002" y="1352.75" as="sourcePoint"/>
                        <mxPoint x="305" y="1234" as="targetPoint"/>
                        <Array as="points">
                            <mxPoint x="304" y="1223"/>
                        </Array>
                    </mxGeometry>
                </mxCell>
                <mxCell id="2863" value="" style="endArrow=classic;startArrow=classic;html=1;rounded=0;fontSize=10;jumpStyle=line;jumpSize=10;strokeWidth=3;exitX=1;exitY=0.5;exitDx=0;exitDy=0;entryX=0;entryY=0;entryDx=0;entryDy=52.5;entryPerimeter=0;" parent="fxQP5-2Rpk5uUzQ9qzvW-1" source="2859" target="2844" edge="1">
                    <mxGeometry width="50" height="50" relative="1" as="geometry">
                        <mxPoint x="676.8" y="1106.5" as="sourcePoint"/>
                        <mxPoint x="767.3" y="1146.5" as="targetPoint"/>
                    </mxGeometry>
                </mxCell>
                <mxCell id="2864" value="&lt;span style=&quot;font-size: 11px;&quot;&gt;ArrayList&lt;/span&gt;&lt;br style=&quot;font-size: 11px;&quot;&gt;&lt;span style=&quot;font-size: 11px;&quot;&gt;&amp;lt;ParentElement&amp;gt;&lt;/span&gt;" style="text;strokeColor=none;align=left;fillColor=none;html=1;verticalAlign=middle;whiteSpace=wrap;rounded=0;labelBackgroundColor=none;fontSize=10;" parent="fxQP5-2Rpk5uUzQ9qzvW-1" vertex="1">
                    <mxGeometry x="399.74999999999994" y="1184" width="89.92" height="20" as="geometry"/>
                </mxCell>
                <mxCell id="2865" value="&lt;span style=&quot;font-size: 11px;&quot;&gt;処理件数&lt;/span&gt;" style="text;strokeColor=none;align=left;fillColor=none;html=1;verticalAlign=middle;whiteSpace=wrap;rounded=0;labelBackgroundColor=none;fontSize=10;" parent="fxQP5-2Rpk5uUzQ9qzvW-1" vertex="1">
                    <mxGeometry x="406.46000000000004" y="1224" width="56.5" height="20" as="geometry"/>
                </mxCell>
                <mxCell id="2866" value="" style="group" parent="fxQP5-2Rpk5uUzQ9qzvW-1" vertex="1" connectable="0">
                    <mxGeometry x="750.8" y="1278" width="73" height="111.75" as="geometry"/>
                </mxCell>
                <mxCell id="2867" value="" style="shape=cylinder3;whiteSpace=wrap;html=1;boundedLbl=1;backgroundOutline=1;size=15;fontSize=11;fillColor=#f5f5f5;fontColor=#333333;strokeColor=#666666;" parent="2866" vertex="1">
                    <mxGeometry x="6.5" y="5" width="60" height="80" as="geometry"/>
                </mxCell>
                <mxCell id="2868" value="&lt;span style=&quot;font-size: 11px;&quot;&gt;CHILD_ELEMENTS&lt;br&gt;テーブル&lt;br&gt;&lt;/span&gt;" style="text;strokeColor=none;align=center;fillColor=none;html=1;verticalAlign=middle;whiteSpace=wrap;rounded=0;labelBackgroundColor=none;fontSize=10;" parent="2866" vertex="1">
                    <mxGeometry y="87.75" width="73" height="20" as="geometry"/>
                </mxCell>
                <mxCell id="2879" value="" style="group" parent="fxQP5-2Rpk5uUzQ9qzvW-1" vertex="1" connectable="0">
                    <mxGeometry x="557.05" y="1254" width="170" height="68.25" as="geometry"/>
                </mxCell>
                <mxCell id="2880" value="&lt;font color=&quot;#000000&quot;&gt;&lt;br&gt;&lt;/font&gt;" style="shape=callout;whiteSpace=wrap;html=1;perimeter=calloutPerimeter;fontSize=11;fillColor=#dae8fc;strokeColor=#6c8ebf;base=13;position2=0.47;size=30;position=0.47;align=left;" parent="2879" vertex="1">
                    <mxGeometry y="-10" width="161.5" height="78.25" as="geometry"/>
                </mxCell>
                <mxCell id="2881" value="INSERT文：RoadmapインスタンスのChildElementインスタンスの各フィールドを挿入" style="text;strokeColor=none;align=left;fillColor=none;html=1;verticalAlign=middle;whiteSpace=wrap;rounded=0;labelBackgroundColor=none;fontSize=10;fontColor=#000000;" parent="2879" vertex="1">
                    <mxGeometry y="-8.258626198083068" width="158.66666666666663" height="44.386485623003196" as="geometry"/>
                </mxCell>
                <mxCell id="2883" value="" style="group" parent="fxQP5-2Rpk5uUzQ9qzvW-1" vertex="1" connectable="0">
                    <mxGeometry x="567.05" y="1304" width="99.75" height="40" as="geometry"/>
                </mxCell>
                <mxCell id="2884" value="ChildElementsDAO&lt;br&gt;insertByRoadmap()" style="rounded=0;whiteSpace=wrap;html=1;labelBackgroundColor=none;fillStyle=auto;strokeColor=#6F0000;fontFamily=Helvetica;fontSize=10;fontColor=#ffffff;fillColor=#a20025;container=0;" parent="2883" vertex="1">
                    <mxGeometry y="20" width="99.75000000000003" height="25" as="geometry"/>
                </mxCell>
                <mxCell id="2885" value="&lt;span style=&quot;font-size: 11px;&quot;&gt;DAO&lt;/span&gt;" style="text;strokeColor=none;align=left;fillColor=none;html=1;verticalAlign=middle;whiteSpace=wrap;rounded=0;labelBackgroundColor=none;fontSize=10;" parent="2883" vertex="1">
                    <mxGeometry x="28.9484265734266" width="41.85314685314686" height="20" as="geometry"/>
                </mxCell>
                <mxCell id="2886" style="edgeStyle=none;html=1;entryX=0;entryY=0.25;entryDx=0;entryDy=0;rounded=0;jumpStyle=line;jumpSize=10;" parent="fxQP5-2Rpk5uUzQ9qzvW-1" target="2884" edge="1">
                    <mxGeometry relative="1" as="geometry">
                        <mxPoint x="567.0500000000002" y="1375.25" as="targetPoint"/>
                        <mxPoint x="358" y="1210" as="sourcePoint"/>
                        <Array as="points">
                            <mxPoint x="358" y="1330"/>
                        </Array>
                    </mxGeometry>
                </mxCell>
                <mxCell id="2887" style="edgeStyle=none;html=1;exitX=0;exitY=0.75;exitDx=0;exitDy=0;rounded=0;" parent="fxQP5-2Rpk5uUzQ9qzvW-1" source="2884" edge="1">
                    <mxGeometry relative="1" as="geometry">
                        <mxPoint x="564.0500000000002" y="1342.75" as="sourcePoint"/>
                        <mxPoint x="305" y="1224" as="targetPoint"/>
                        <Array as="points">
                            <mxPoint x="305" y="1343"/>
                        </Array>
                    </mxGeometry>
                </mxCell>
                <mxCell id="2888" value="" style="endArrow=classic;startArrow=classic;html=1;rounded=0;fontSize=10;jumpStyle=line;jumpSize=10;strokeWidth=3;exitX=1;exitY=0.5;exitDx=0;exitDy=0;entryX=0;entryY=0;entryDx=0;entryDy=52.5;entryPerimeter=0;" parent="fxQP5-2Rpk5uUzQ9qzvW-1" source="2884" target="2867" edge="1">
                    <mxGeometry width="50" height="50" relative="1" as="geometry">
                        <mxPoint x="676.8" y="1226.5" as="sourcePoint"/>
                        <mxPoint x="767.3" y="1266.5" as="targetPoint"/>
                    </mxGeometry>
                </mxCell>
                <mxCell id="2889" value="&lt;span style=&quot;font-size: 11px;&quot;&gt;ArrayList&lt;/span&gt;&lt;br style=&quot;font-size: 11px;&quot;&gt;&lt;span style=&quot;font-size: 11px;&quot;&gt;&amp;lt;ChildElement&amp;gt;&lt;/span&gt;" style="text;strokeColor=none;align=left;fillColor=none;html=1;verticalAlign=middle;whiteSpace=wrap;rounded=0;labelBackgroundColor=none;fontSize=10;" parent="fxQP5-2Rpk5uUzQ9qzvW-1" vertex="1">
                    <mxGeometry x="404.09" y="1306" width="89.92" height="20" as="geometry"/>
                </mxCell>
                <mxCell id="2890" value="&lt;span style=&quot;font-size: 11px;&quot;&gt;処理件数&lt;/span&gt;" style="text;strokeColor=none;align=left;fillColor=none;html=1;verticalAlign=middle;whiteSpace=wrap;rounded=0;labelBackgroundColor=none;fontSize=10;" parent="fxQP5-2Rpk5uUzQ9qzvW-1" vertex="1">
                    <mxGeometry x="401.75" y="1347" width="56.5" height="20" as="geometry"/>
                </mxCell>
                <mxCell id="2892" value="" style="group" parent="fxQP5-2Rpk5uUzQ9qzvW-1" vertex="1" connectable="0">
                    <mxGeometry x="60.00499999999998" y="980" width="203.67000000000002" height="148.44" as="geometry"/>
                </mxCell>
                <mxCell id="2893" value="&lt;font color=&quot;#000000&quot;&gt;&lt;br&gt;&lt;/font&gt;" style="shape=callout;whiteSpace=wrap;html=1;perimeter=calloutPerimeter;fontSize=11;fillColor=#dae8fc;strokeColor=#6c8ebf;base=19;position2=0.47;size=30;position=0.47;align=left;rotation=90;" parent="2892" vertex="1">
                    <mxGeometry x="56.19" y="-54.23" width="82.81" height="195.21" as="geometry"/>
                </mxCell>
                <mxCell id="2894" value="取得したroadmapListからcurrentRoadmapの位置の要素を、新規宣言したRoadmapインスタンスにコピー、roadmapListの要素数をroadmapIdとして各所にセット、roadmapListにappend()" style="text;strokeColor=none;align=left;fillColor=none;html=1;verticalAlign=middle;whiteSpace=wrap;rounded=0;labelBackgroundColor=none;fontSize=10;fontColor=#000000;" parent="2892" vertex="1">
                    <mxGeometry x="34.8" y="4" width="155.2" height="80" as="geometry"/>
                </mxCell>
                <mxCell id="2895" value="" style="group" parent="fxQP5-2Rpk5uUzQ9qzvW-1" vertex="1" connectable="0">
                    <mxGeometry x="78" y="1191" width="80" height="45" as="geometry"/>
                </mxCell>
                <mxCell id="2896" value="&lt;span style=&quot;color: rgb(255, 255, 255);&quot;&gt;MypageServlet&lt;/span&gt;&lt;font color=&quot;#ffffff&quot;&gt;&lt;br&gt;doPost()&lt;br&gt;&lt;/font&gt;" style="rounded=0;whiteSpace=wrap;html=1;labelBackgroundColor=none;fillStyle=auto;strokeColor=#F0F0F0;fontFamily=Helvetica;fontSize=10;fontColor=#007FFF;fillColor=#0066CC;" parent="2895" vertex="1">
                    <mxGeometry y="20" width="80" height="25" as="geometry"/>
                </mxCell>
                <mxCell id="2897" value="&lt;span style=&quot;font-size: 11px;&quot;&gt;Servlet&lt;/span&gt;" style="text;strokeColor=none;align=left;fillColor=none;html=1;verticalAlign=middle;whiteSpace=wrap;rounded=0;labelBackgroundColor=none;fontSize=10;" parent="2895" vertex="1">
                    <mxGeometry x="17" width="46" height="20" as="geometry"/>
                </mxCell>
                <mxCell id="2898" style="edgeStyle=none;rounded=0;jumpStyle=line;jumpSize=10;html=1;exitX=0.5;exitY=1;exitDx=0;exitDy=0;entryX=1;entryY=0.5;entryDx=0;entryDy=0;" parent="fxQP5-2Rpk5uUzQ9qzvW-1" source="2896" target="2799" edge="1">
                    <mxGeometry relative="1" as="geometry">
                        <Array as="points">
                            <mxPoint x="118" y="1390"/>
                        </Array>
                    </mxGeometry>
                </mxCell>
                <mxCell id="2899" value="フォワード" style="text;strokeColor=default;align=center;fillColor=none;html=1;verticalAlign=middle;whiteSpace=wrap;rounded=0;labelBackgroundColor=none;fontSize=10;" parent="fxQP5-2Rpk5uUzQ9qzvW-1" vertex="1">
                    <mxGeometry x="52.5" y="1244.63" width="59" height="15" as="geometry"/>
                </mxCell>
            </root>
        </mxGraphModel>
    </diagram>
</mxfile>